<svg version="1.1" id="Livello_1" xmlns="http://www.w3.org/2000/svg" xmlns:xlink="http://www.w3.org/1999/xlink" x="0px"
	y="0px" viewBox="0 0 1000 541.6" style="enable-background:new 0 0 1000 541.6;" xml:space="preserve">
	<style type="text/css">
		.st0 {
			fill: #333333;
		}

		.st1 {
			fill: #FCFCFC;
		}

		.st2 {
			display: none;
		}

		.st3 {
			display: inline;
			fill: #FCFCFC;
		}

		.st4 {
			stroke: #FFFFFF;
			stroke-miterlimit: 10;
		}
	</style>
	<g id="layer101">
		<path class="st0" d="M0,270.8C0,0,0,0,500,0s500,0,500,270.8s0,270.8-500,270.8S0,541.6,0,270.8z" />
	</g>
	<g id="layer102">
		<g id="front">
			<path data-part="1" class="st1" d="M949,137.4c-0.6,1.6-19.9,1.8-20.8,0.3c-0.3-0.6-1.5-1-2.6-1c-2,0-2.6-2.4-0.9-3.5c0.6-0.3,1-1.9,1-3.4
			c0-4.6,2-5.5,10.8-4.8c4.2,0.3,8.5,0.8,9.4,1.2C948.3,127.2,950.3,134.3,949,137.4z" />
			<path data-part="2" class="st1" d="M939,178.9c-0.4,2.6-0.8,2.8-5.3,2.8c-2.7,0-5.2,0.4-5.5,1c-0.8,1.3-14.2,1.3-15,0c-0.4-0.6-0.1-4.4,0.6-8.6
			c1.2-7.6,1.2-7.6,4.6-7.1c4.2,0.7,6.3,2.3,6.3,4.7c0,2.6-4.8,8-8.5,9.6c-1.6,0.7-2.4,1.3-1.7,1.4c3.9,0.1,11.2-6.6,11.2-10.4
			c0-0.8,1.3-2.2,3-3.1c1.6-0.8,4.1-3,5.6-4.9c2.3-2.8,3-3.2,4.1-2.1C939.7,163.5,940,172.4,939,178.9z" />
			<path data-part="3" class="st1" d="M936.3,196.7c-7.3,2.7-49,5.1-64.6,3.6c-7.3-0.7-7.5-0.9-9.1-4.2c-1.6-3.4-1.6-3.4,2-3.4
			c5.5,0,10.8-1.8,12.9-4.4c1.8-2.3,2.2-2.4,26-3.1c13.3-0.4,24.5-1.1,24.8-1.6s2.7-0.9,5.5-0.9c4.9,0,4.9,0,4.9,6.5
			C938.7,195.2,938.5,195.8,936.3,196.7z" />
			<path data-part="4" class="st1" d="M936.5,211.3c-0.4,1.7-0.8,1.5-2.4,7.2c-1.4,5.1-3.2,10.5-4,11.8c-3,4.5-8.2,5.3-20,2.9
			c-5.4-1.1-23.6-1.5-79.6-2c-63.7-0.6-73.5-0.5-79.3,0.9c-11.4,2.6-18.2,0.3-20.6-7c-1-3-1.3-4.5-2.5-10.5c-0.3-1.4-0.7-3.6-1-5
			c-0.3-1.4-0.8-3.8-1-5.3c-0.2-1.6-0.7-4.1-1-5.7c-0.6-2.8-0.6-2.8,3.2-1.9c8.6,2.2,31.1,3.9,50.6,3.9c20.7,0,20.7,0,20.7,3.9
			s0,3.9,11.3,4.6c6.1,0.3,20.4,0.5,31.7,0.3c20.5-0.3,20.5-0.3,20.8-4.3s0.3-4,27-4c23.6,0,40.6-1.2,45.6-3.1c0,0,0.1,0,0.2,0
			C937.4,198.2,937.8,205.2,936.5,211.3z M910.7,209.9c-3.6-0.3-10.1,2.4-10.8,4.5c-0.4,1.5,4.9,4.3,8.4,4.3c3.7,0,6.6-2.8,6.2-5.9
			C914.2,210.6,913.6,210.2,910.7,209.9z M831.2,214.2c-36,0-36,0-36.3,2.2c-0.4,2.5,0.5,2.9,10.3,4.3c12.9,1.8,31.7,2.3,44.8,1.1
			c15.3-1.4,18-2.2,17.5-5.4C867.2,214.2,867.2,214.2,831.2,214.2z M759.5,210.7c-4.6-2.8-11.2-2.4-11.6,0.7
			c-0.4,2.8,3.1,6.3,6.3,6.3c3,0,8.5-2.6,8.5-4C762.7,213.1,761.2,211.8,759.5,210.7z" />
			<path data-part="5" class="st1"
				d="M912.2,216.1c-1.9,1.8-4.3,2-7.9,0.6c-3.6-1.3-3.2-2.8,1-4.6C911.6,209.4,916.2,212.1,912.2,216.1z" />
			<path data-part="6" class="st1" d="M864.5,219c-6.2,1.6-29.5,2.8-40.8,2.2c-18.4-1.1-27.4-2.6-27.8-4.8c-0.3-1.6,1.7-1.7,35-1.5
			c31.7,0.3,35.3,0.5,35.6,1.9C866.7,217.8,865.9,218.7,864.5,219z" />
			<path data-part="7" class="st1"
				d="M760.4,214.6c-2.7,2.2-7.2,2.4-9.7,0.3c-5.1-4.1,0.3-6.8,7.5-3.8C762.1,212.8,762.3,213,760.4,214.6z" />
			<path data-part="8" class="st1"
				d="M934.7,161.8c-2.2,4.2-8.1,7.8-10.2,6.2c-0.7-0.6-2.8-1.4-4.5-1.8c-1.8-0.3-3.5-1-3.8-1.4
			c-0.2-0.5,0.9-5.2,2.6-10.6c1.7-5.3,2.9-9.9,2.6-10.1c-0.2-0.2-1.9,4.6-3.8,10.6c-3.4,11-3.4,11-10.9,11
			c-13.3,0.1-27.5,4.3-30,8.9c-1.6,3.1-1.2,5,1.8,7.8c2.4,2.3,2.5,2.5,0.5,1.9c-1.5-0.5-2.8-0.1-4.2,1.3c-3,3-8.2,3.3-46.5,3
			c-34.9-0.4-35.5-0.4-38.5-2.7c-2.5-1.8-4.4-2.2-11.8-2.4c-5.1-0.1-6.7-0.3-3.8-0.5c9.7-0.6,12.5-2.3,12.5-7.3
			c0-6.2-10.8-10.8-27.6-11.7c-10.1-0.6-10.1-0.6-13.4-11.9c-2.5-8.9-3-11.7-2.1-12.8c1.1-1.3,5-1.8,21.6-2.9c2.2-0.2,3,0.3,3.3,1.8
			c0.3,1.1,2.1,4,4.2,6.5c6,7.3,10.8,15.1,12.4,20.5c6.4,21.3,5.7,19.9,10.1,20.7c2.2,0.4,20.1,0.7,39.7,0.7
			c41.4,0.1,37,1.4,40.8-12.3c3.4-12.4,6.9-18.7,16.2-29.5c2.1-2.4,3.8-5.1,3.8-6c0-1.5,1-1.6,7.8-0.9c4.2,0.3,9.2,0.7,11,0.7
			c1.8,0.1,4.1,1,5.3,2.2c2,2,2.1,2,3.4,0.3c1.2-1.7,1.4-1.7,3.9,0c2.3,1.5,2.6,2.2,2.1,4.8c-1.3,5.8-4.5,11.6-8.5,15.2
			c-2.2,2-3.4,3.6-2.7,3.6c1.2,0,4.5-3.1,7.6-7.3c0.8-0.9,2.3-4.4,3.5-7.7c2.2-6,2.2-6,4.3-2.3C936.4,153,936.8,157.6,934.7,161.8z" />
			<path data-part="9" class="st1" d="M921.9,140.7c-0.6,0-1.7-2.1-2.6-4.6c-1.5-4.5-1.5-4.5,0.7-4.2c1.8,0.2,2.3,1,2.5,4.5
			C922.7,138.8,922.4,140.7,921.9,140.7z" />
			<path data-part="10" class="st1" d="M919.8,130.7c-1.2,0-3.1-3.3-6.8-11.9c-4.9-11.3-13.2-25.8-19.1-33c-4.5-5.6,0.6-2.2,6.7,4.5
			c5.1,5.6,12.3,19,18.4,34.1C921.3,130,921.4,130.7,919.8,130.7z" />
			<path data-part="11" class="st1" d="M911.4,137.3c-33.3-3-92.3-4.3-129.3-2.7c-14.9,0.6-29.2,1.4-31.9,1.7c-4.7,0.7-4.7,0.7-4-2.7
			c1.2-5.9,10.5-26.1,16.2-35.2c5.6-8.7,5.6-8.7,54.8-8.7c27,0,56,0.3,64.3,0.7c15.2,0.6,15.2,0.6,19.9,8.2
			c5.3,8.4,13.2,25.7,15.7,34C918.7,138,918.7,138,911.4,137.3z" />
			<path data-part="12" class="st1" d="M912.4,176.4c-1.2,7.3-1,7.3-15.8,7.3c-13.3,0-16.6-0.7-18.6-3.6c-1.4-2.2-1.4-2.6,0.1-4.9
			c0.9-1.3,3-3.2,4.7-4c4.2-2.2,16.7-4.5,24.5-4.5C914.5,166.7,914.1,165.9,912.4,176.4z" />
			<path data-part="13" class="st1" d="M882.7,89.4c-7.4-0.4-35.9-0.7-63.3-0.7c-46.8,0-49.7-0.2-48.8-1.8c0.5-0.9,2.1-2.8,3.5-4.1
			c2.4-2.3,3.3-2.4,24.8-3.3c22.6-1,82.5,0.4,87.9,1.9c1.4,0.5,4.1,2.6,6,4.7C896.2,90,896.2,90,882.7,89.4z" />
			<path data-part="14" class="st1" d="M892.1,142.8c-3.9,3.5-14.1,19.3-14.9,23c-0.5,2.3-1.1,2.9-2.3,2.3c-4.7-2.1-81.3-2.9-86.2-1
			c-1.2,0.5-1.9-0.4-2.9-3.1c-1.9-5.4-5.8-11.8-11.3-18.7c-7.9-9.8-9.3-9.3,24.5-10.1c26.7-0.6,92.8,0.8,94.9,2.1
			C895.4,138.3,894.7,140.4,892.1,142.8z" />
			<path data-part="15" class="st1"
				d="M875,189.4c-2.5,1.6-6,1.8-40.8,1.7c-20.9,0-39.6-0.3-41.6-0.7c-3.4-0.7-8.6-4.4-7.5-5.4
			c0.2-0.3,1.9,0.6,3.6,1.9c3.2,2.3,3.2,2.3,43.5,2.3s40.3,0,42.9-2.4c2.1-2,2.6-2.1,2.6-0.8C877.7,186.9,876.5,188.5,875,189.4z" />
			<path data-part="16" class="st1" d="M872.6,177.6c-1,3-2.5,5.8-3.2,6.3c-0.6,0.4-17.5,0.8-37.3,0.8c-33,0-36.4-0.2-38.2-1.8
			c-2.3-2-5.7-11.6-4.8-13.7c0.5-1.3,5.3-1.5,32.3-1.4c40.2,0.2,52.7,0.9,53,2.9C874.5,171.5,873.7,174.6,872.6,177.6z" />
			<path data-part="17" class="st1" d="M844,208.7c-9.8,0-23.5-0.3-30.5-0.7c-12.8-0.6-12.8-0.6-12.8-6.9c0-5.9,0.2-6.4,2.5-7
			c1.3-0.3,5.3-0.4,8.7-0.1c3.5,0.4,16.1,0.6,28.1,0.6c21.7,0.1,21.7,0.1,21.7,7.1S861.7,208.7,844,208.7z" />
			<path data-part="18" class="st1" d="M805.9,192.5c-3.8,0.3-6.2,2.1-6.2,4.7c0,2.5,0,2.5-20.2,2.5c-19.9,0-43.6-1.9-51-4c-3.8-1.1-3.8-1.1-3.8-8
			c0-7,0-7,4.4-7c2.4,0,4.8,0.6,5.5,1.4c0.8,1,6.7,1.5,24.7,2.1c23.6,0.7,23.6,0.7,26.4,3.8c2.7,3.1,3.2,3.2,12.7,3.8
			C803.8,192.1,807.2,192.4,805.9,192.5z" />
			<path data-part="19" class="st1" d="M784,179.8c-1.8,1.6-20.6,2.5-27.8,1.4c-4.7-0.7-4.4-0.2-6.1-11.8c-0.6-4.7-0.6-4.7,5.2-4.7
			c12.6,0,27.3,4.1,29.4,8.1C786.2,175.5,785.9,178.3,784,179.8z" />
			<path data-part="20" class="st1" d="M770.7,85.2c-3.8,3.4-14.2,20.6-19.2,31.8c-2.8,6.2-5.6,11.5-6.2,11.9c-2,1.4-2.7,0.8-2-1.5
			c1.3-4.5,11.9-26.3,14.8-30.7c5.4-8,14.6-17,14.6-14.2C772.7,83,771.8,84.2,770.7,85.2z" />
			<path data-part="21" class="st1" d="M746.1,182.6c-7,0.1-9.5-0.3-10.4-1.4c-0.8-0.9-3-1.5-6-1.5c-3.4,0-5-0.4-5.4-1.6c-1.2-3.1-0.6-15.9,0.9-17.8
			c1.4-1.8,1.5-1.8,2.5,0.5c0.6,1.3,2.9,3.7,5.1,5.3c2.1,1.7,4.7,4.6,5.7,6.5c2.4,4.5,5.8,7,11.9,8.7
			C755.2,182.6,755.2,182.6,746.1,182.6z" />
			<path data-part="22" class="st1" d="M748.8,179.7c-2.7,0-8.1-4.8-9.8-8.7c-0.7-1.9-2.4-3.8-3.6-4.2c-6.9-2.7-9.7-12.2-5.8-19.9
			c2.3-4.5,4.1-5.5,4.1-2.3c0,3.4,4,11.5,7.6,15.1c3.4,3.6,3.4,3.6-0.1,4.9c-1.9,0.7-3.5,1.6-3.5,2.1s1.2,0.2,2.8-0.6
			c1.5-0.7,3.9-1.4,5.3-1.4c2.5,0,2.7,0.4,3.3,5.7c0.4,3.2,0.9,6.6,1.2,7.5C750.7,179.2,750.3,179.7,748.8,179.7z" />
			<path data-part="23" class="st1" d="M747.5,255.5c-1.5,1.5-20.6,0.5-22.7-1.2c-1.1-0.8-1.2-3.4-0.8-12.6c0.4-6.3,0.7-16.4,0.7-22.4
			c0-10.9,0.4-12.8,1.4-7.1c1.8,9.6,3.2,14.1,5.8,17.7c2.2,3.1,8.3,5.2,13.5,4.6c3.3-0.4,3.3-0.4,3.3,9.7
			C748.7,250.7,748.3,254.7,747.5,255.5z" />
			<path data-part="24" class="st1" d="M746.4,162.7c-3.6,0-11.7-13.5-11.7-19.5c0-2.2,4.4-6.5,5.4-5.4c0.2,0.2,1.8,5.3,3.6,11.4
			c1.8,6,3.5,11.6,3.8,12.2C747.7,162.1,747.2,162.7,746.4,162.7z" />
			<path data-part="25" class="st1" d="M745,133.7c-0.3,0.8-1,2.6-1.5,4c-0.8,2-1.1,2.2-1.8,1c-1.3-2.5,0-7.8,2.1-8.3
			C745.7,129.9,746.1,130.8,745,133.7z" />
			<path data-part="26" class="st1" d="M715.4,135.9c0.6,1.6,19.9,1.8,20.8,0.3c0.3-0.6,1.5-1,2.6-1c2,0,2.6-2.4,0.9-3.5c-0.6-0.3-1-1.9-1-3.4
			c0-4.6-2-5.5-10.8-4.8c-4.2,0.3-8.5,0.8-9.4,1.2C716.1,125.7,714.1,132.8,715.4,135.9z" />
			<path data-part="27" class="st1" d="M915.9,256.5c1.5,1.5,20.6,0.5,22.7-1.2c1.1-0.8,1.2-3.4,0.8-12.6c-0.4-6.3-0.7-16.4-0.7-22.4
			c0-10.9-0.4-12.8-1.4-7.1c-1.6,9.3-2.8,13.9-5.8,17.7c-1.4,1.8-2.9,3.8-5.6,4.4c-2.7,0.7-7.6,0.2-7.9,0.2c-1.4-0.1-1.7-0.2-2.2,0
			c-1.6,0.9-1.5,4-1.1,9.7C915.1,252.3,915.3,255.9,915.9,256.5z" />
		</g>
		<g id="left" class="st2">
			<path class="st1" d="M330.6,83.3c-20.3,0.9-34.2,3.1-44.1,6.8c-14.2,5.2-30.6,13.4-45.9,22.8c-16,9.9-38.9,26.2-38.9,27.8
			c-0.1,0.5,1.9,1.1,4.4,1.3c4.4,0.3,4.7,0.1,12-7.3c4.1-4.1,7.9-7.5,8.4-7.5s-0.8,1.6-3,3.5c-2.1,1.9-3.4,3.4-2.8,3.5
			c1.3,0,8-6.9,7.6-7.8c-0.2-0.3,0.2-0.8,0.9-1.1c0.7-0.2,0.9,0.1,0.4,0.9c-0.5,0.9-0.4,1.1,0.4,0.6c0.6-0.4,0.9-1.1,0.6-1.6
			c-1.7-2.8,37-24.8,57.3-32.6c14.5-5.5,66.9-9,97.7-6.5c26.4,2.2,37.7,4.5,52.1,11.1c13.4,6,32.7,19.9,40.6,29.3
			c4.7,5.4,4.7,5.4-11.2,6.2c-8.8,0.4-16,1-16,1.3s1,3.7,2.2,7.5c2.3,7,2.3,7,31.3,6.3c34.2-0.9,57.1-2,78.9-3.7
			c15.8-1.3,15.8-1.3,15.3-6.7c-0.3-3-0.8-5.6-1.1-5.9c-0.3-0.3-10.3-0.9-22.3-1.4c-34.1-1.3-35.7-1.7-54.2-13.2
			C454.7,87.9,411.7,79.4,330.6,83.3z" />
			<path class="st1" d="M331.1,87.3c-16.6,1-34.8,3.6-41.3,5.8c-17.2,6.1-50.1,24-49.5,27.1c0.2,0.8,1.3,1.6,2.5,1.8
			c4,0.6,5.5,3.5,5.1,10.3c-0.3,6.2-0.3,6.2,21.7,5.5c12.1-0.3,29-0.9,37.5-1.2c8.5-0.4,19.3-0.7,23.9-0.8
			c8.4-0.1,8.4-0.1,13.8-24.1c2.9-13.2,5.3-24.3,5.3-24.8C350.1,86.1,349.4,86.1,331.1,87.3z" />
			<path class="st1" d="M346.2,110.4c-2.9,13.4-5.4,24.7-5.5,25.3c-0.1,0.8,9.2,1,10,0.2c0.2-0.1,1.8-11.4,3.7-25
			c3.3-24.7,3.3-24.7,0.2-24.7S351.5,86.2,346.2,110.4z" />
			<path class="st1" d="M358.6,88.4c-1.1,5-6.3,46.3-5.9,46.8c0.6,0.5,95.4-3.7,96-4.3c0.7-0.7-7.2-15.2-14.4-26.4
			c-6.6-10.2-6.6-10.2-13.1-12.2c-10.5-3-38-6.1-55.1-6.1C359.7,86.2,359.1,86.4,358.6,88.4z" />
			<path class="st1" d="M244.1,100.6c-23.9,11.5-52.5,27.2-61.4,33.7c-4.4,3.2-4.7,3,7.1,5.5c8.3,1.7,8.3,1.7,12.5-1.8
			c18-14.4,47.4-32.9,66.2-41.4c12.8-5.9,12.8-5.9,9-6.6c-2.2-0.4-4.8-1-5.9-1.2C270.4,88.6,258.9,93.6,244.1,100.6z" />
			<path class="st1" d="M430.1,95.7c0,0.3,2.2,3.8,4.9,7.8c2.6,4,7.4,12.1,10.6,18.1c5.8,10.9,5.8,10.9,13.9,10.2
			c4.5-0.3,11.3-0.6,15.1-0.6c7-0.1,7-0.1-1.7-8.4c-9.5-9.2-24.7-19.7-35.3-24.5C430.4,95,430.1,94.9,430.1,95.7z" />
			<path class="st1" d="M233,126.1c-6.1,6.2-1.9,12.4,8,11.9c5.6-0.3,5.6-0.3,5.9-6.3c0.4-7-0.9-8.5-7.1-8.5
			C236.9,123.2,235.3,123.9,233,126.1z" />
			<path class="st1" d="M536.6,124.2c-1.6,0.4-4.9,0.8-7.2,0.9c-2.3,0-4.4,0.5-4.7,1c-0.9,1.3,7.2,2.1,28.4,2.7
			c10.7,0.3,21.3,0.9,23.5,1.4c2.3,0.6,5.5,0.6,7.5,0.1c3.5-0.8,3.5-0.8,0-2.4c-2.3-0.9-9.9-1.9-21.5-2.6
			c-9.9-0.7-19.1-1.4-20.5-1.5C540.7,123.6,538.3,123.8,536.6,124.2z" />
			<path class="st1" d="M223.5,133.7c-5.9,5.4-5.9,5.4-2.3,5.5c3.9,0,5.9-1.4,5.9-4.2c0-1,0.7-3,1.6-4.3
			C231.1,127,230.1,127.6,223.5,133.7z" />
			<path class="st1" d="M581,132.2c-1.3,0.8-1.5,2-1.1,5.7c0.2,2.7,0.6,5,0.8,5.1c0.1,0.2,1.6,0.1,3.3-0.3c3-0.6,3.1-0.8,3.1-6.1
			c0-4.9-0.2-5.4-2.2-5.4C583.6,131.2,581.9,131.7,581,132.2z" />
			<path class="st1" d="M228.1,135.3c0,1.4-0.5,3-1.2,3.7c-1.3,1.3-10.8,1.7-10.8,0.5c0-0.4,1-1.8,2.2-3.2c1.3-1.4,0.4-0.8-2,1.4
			c-2.3,2.2-3.8,4.1-3.2,4.3c1.4,0.5,24.2-1.7,24.9-2.3c0.2-0.3-0.4-0.5-1.4-0.5c-1.1,0-3.4-1.4-5.2-3.2
			C228.1,132.8,228.1,132.8,228.1,135.3z" />
			<path class="st1" d="M392.4,135.6c-25.4,1.1-46.4,2.4-46.7,2.7s-1,3.3-1.4,6.7c-0.9,6.2-0.9,6.2,6.2,6.1c26.9-0.3,102.5-2.5,103-3
			c0.3-0.3-0.5-3.7-1.7-7.5c-2.4-6.9-2.4-6.9-7.8-7C441,133.5,417.8,134.4,392.4,135.6z" />
			<path class="st1" d="M167.8,136.6c-0.9,0.7-4.5,1.6-8,2c-16.8,1.8-87.9,14.8-98.9,18.1c-7.5,2.2-14.8,7-14.8,9.7
			c0,1.5,2.7,0.8,4.6-1.3c3-3.3,6.4-4.7,20.6-8.3c24.3-6.3,62.7-12.8,83.6-14.2c4.8-0.3,11.3-1.5,14.6-2.6c5.6-2.1,5.7-2.2,3.5-3.4
			C170,135,170,135,167.8,136.6z" />
			<path class="st1" d="M171.1,140.7c-3.1,1.4-7.5,2.4-10.1,2.5c-14,0.1-62.1,7.9-87.4,14.1c-21.1,5.2-22.4,6-26,17
			c-1.5,4.4-2.4,8.3-2.1,8.6c0.3,0.3,0.9-0.3,1.2-1.3c2.5-6.9,4.7-12.1,5.6-13.1c0.6-0.8,3.3-1.3,6.5-1.3c3.7,0,6.8-0.7,10.1-2.4
			c2.6-1.3,7.2-3.1,10.2-4c12.6-3.8,62.3-11.6,95.2-15c7.5-0.8,14.8-2.1,16.3-2.9c2.6-1.3,2.5-1.4-4.9-3
			C176.4,137.8,177.8,137.8,171.1,140.7z" />
			<path class="st1" d="M310.6,139.2c-13.7,0.4-32.9,0.9-42.5,1s-26.8,1-38.1,1.8c-20.7,1.6-20.7,1.6-21.8,6.5
			c-2.1,9.2-2.3,9,7.2,8.3c11.5-0.9,64.8-3.4,98.2-4.6c19.9-0.8,28.1-1.4,28.7-2.3c0.4-0.7,0.8-2.6,0.8-4.2c0-1.7,0.3-4,0.6-5.3
			c0.6-2,0.3-2.2-3.7-2C337.6,138.5,324.4,138.9,310.6,139.2z" />
			<path class="st1" d="M191.7,143.8c-1.7,1-8.2,2.2-16.5,3c-18.6,1.9-54.7,7-71.6,10c-43.4,7.8-46.8,13.6-5,8.7
			c36.3-4.3,68.4-7,101.4-8.5c5.4-0.3,5.4-0.3,6.7-6.7c0.8-3.6,1.3-6.6,1.1-6.7c-0.1-0.1-3.1-0.5-6.7-0.8
			C196.1,142.3,193.9,142.6,191.7,143.8z" />
			<path class="st1" d="M583.4,144c-3,0.9-1.4,3.5,2.1,3.7c2.7,0.1,3-0.3,2-2.9C586.8,143.1,586.7,143.1,583.4,144z" />
			<path class="st1" d="M562.6,145.3c-24.4,1.8-47.2,2.8-75.8,3.5c-30.8,0.7-30.8,0.7-30,5.3c0.4,2.5,0.7,6.8,0.6,9.4
			c-0.1,4.2,0.1,4.8,1.5,4.2c6.3-2.7,11.8-3.7,19.7-3.7c10.8,0,19.8,2.5,27.5,7.7c5.2,3.5,5.2,3.5,42.6,3.5s37.4,0,37.4-6
			s0-6-9.5-10.4c-13.4-6.3-14-9.7-2-10.4c6.6-0.4,7.4-0.9,5.3-3C578.6,144.1,578,144.1,562.6,145.3z" />
			<path class="st1" d="M568.8,150.3c-2.7,1.6-0.5,3.6,8,7.6c8.5,3.9,9.3,4,8.6,1c-2.4-10.4-1.8-9.7-8.6-9.7
			C573.4,149.2,569.8,149.7,568.8,150.3z" />
			<path class="st1" d="M584.5,150.9c0.4,0.9,1.1,3.7,1.7,6.2c0.9,4.2,2.2,6,4.2,6.1c1,0,0.9-5.9-0.4-10.3c-0.8-3-1.4-3.7-3.6-3.7
			C584.5,149.2,584,149.6,584.5,150.9z" />
			<path class="st1" d="M378.6,151.4c-19.2,0.5-35,1-35.1,1.1s-0.7,9.6-1.3,21.2c-0.6,11.5-1.3,25.7-1.7,31.4
			c-0.2,3.1-0.3,5.3,0.8,6.8c5.1,7.1,20.6,4.6,43.4,3c10.4-0.7,24.8-1.3,42.1-0.8c0-0.3,0.1-0.8,0.1-1.4c0-1.3-0.2-2.3-0.2-2.4
			c0.9-13.6,11.3-30.3,23.7-38.1c6.4-4,7.1-6.3,5.5-16.3c-1-5.7-1-5.7-21.7-5.5C422.9,150.4,397.9,150.9,378.6,151.4z M436.1,157.7
			c0.6,0.8,0.9,2.3,0.5,3.5c-0.6,1.8-1.4,2-9.5,2c-7.8,0-9.1-0.2-10-1.9c-0.7-1.5-0.6-2.3,0.6-3.5
			C419.8,155.6,434.3,155.5,436.1,157.7z" />
			<path class="st1" d="M418.8,157.9c-0.4,0.3-0.7,1.5-0.7,2.5c0,1.6,0.9,1.8,8.4,1.8c8.6,0,10.8-0.9,8.6-3.5
			c-0.9-1.1-3.4-1.5-8.5-1.5C422.7,157.2,419.1,157.5,418.8,157.9z" />
			<path class="st1" d="M300.1,153.8c-54,2.1-92.3,4.3-93.3,5.3c-1.2,1.2-2.2,43.8-1.2,51.6c0.7,5.8,0.7,5.8,66.8,5.1
			c36.4-0.4,66.2-0.8,66.4-0.9c0.1-0.2,0.7-10.2,1.2-22.2c0.6-12.1,1.4-26.2,1.7-31.3c0.6-9.2,0.6-9.2-4.2-9.1
			C334.8,152.4,318,153.1,300.1,153.8z M332.1,157.7c0.6,0.8,0.9,2.3,0.5,3.5c-0.6,1.8-1.4,2-9.5,2c-7.8,0-9.1-0.2-10-1.9
			c-0.7-1.5-0.6-2.3,0.6-3.5C315.8,155.6,330.3,155.5,332.1,157.7z" />
			<path class="st1" d="M314.8,157.9c-0.4,0.3-0.7,1.5-0.7,2.5c0,1.6,0.9,1.8,8.4,1.8c8.6,0,10.8-0.9,8.6-3.5
			c-0.9-1.1-3.4-1.5-8.5-1.5C318.7,157.2,315.1,157.5,314.8,157.9z" />
			<path class="st1" d="M163.1,160.2c-13.5,1-36.7,3.2-51.6,4.9s-27.6,3.1-28.3,3.1c-0.9,0-0.8,0.6,0.3,2.2c2.1,2.9,2,3.1-1,6.7
			c-2.6,3.1-2.6,3.1,4.8,3.2c4,0,9.2,0.2,11.6,0.5c4,0.6,4.6,0.3,9.1-3.9c12.6-11.7,33.8-16.5,52.4-11.8c10.6,2.8,15.2,5.4,22.7,13
			c9.8,9.9,15,21.5,15,33.3c0,4.7,0,4.8,3.3,4.8c3.2,0,3.2,0,2.9-21.7c-0.2-12,0.1-25.1,0.5-29.1c0.9-7.2,0.9-7.2-8.1-7.1
			C191.7,158.4,176.6,159.2,163.1,160.2z M200.9,165.9c0.3,2.2,0,2.3-5.7,2.3c-5.9,0-6.1-0.1-6.1-2.5c0-2.5,0.2-2.6,5.8-2.3
			C199.9,163.7,200.6,164,200.9,165.9z" />
			<path class="st1"
				d="M190.1,165.6c0,1.2,1.2,1.6,5.1,1.6c6.6,0,6.2-2.4-0.4-2.8C191.1,164.2,190.1,164.4,190.1,165.6z" />
			<path class="st1" d="M587.1,169.2c0,6,0,6,3,6c2.6,0,3-0.3,2.9-2.8c-0.2-4.7-1.4-7.5-3.7-8.3C587.2,163.3,587.1,163.5,587.1,169.2
			z" />
			<path class="st1"
				d="M136.1,164.8c-7.5,1.5-17.2,5.3-22.4,8.9c-7.1,4.8-15.8,15.7-18.6,23.4c-3.8,9.8-5.1,25.7-2,22.5
			c0.5-0.5,1.4-3.9,2-7.7c2-12.6,8.5-25.6,16.2-32.3c13.9-12.2,41.8-15.1,59.2-6.2c11.6,5.9,24.6,26.7,24.6,39.5
			c0,1.8,0.5,3.3,1.1,3.3c1.8,0,0.4-12.5-2.1-19.2c-7.5-20.1-24.1-31.7-46.3-32.4C142.7,164.5,137.5,164.6,136.1,164.8z" />
			<path class="st1" d="M44,170.9c-1.7,4.4-3.1,12.3-2.6,13.8c0.7,1.7-3,4.2-7.7,5c-3.2,0.6-5.2,2.5-2.6,2.5c0.6,0,1,1.1,1,2.5
			c0,2.5,0,2.5,16.3,2.4c8.9-0.1,22.8-0.4,30.9-0.8c14.7-0.6,14.7-0.6,18.7-7.1c2.1-3.6,3.8-6.5,3.8-6.6c-7,0-11.7-0.2-14.2-0.6
			c-0.9-0.1-3.4-0.6-6.4,0.3c-0.4,0.1-0.6,0.2-0.8,0.2c-4.5,1.6-10.8,1-10.8,1c-24.9,1.3-27.4,1.3-26.5,0.2c0.7-0.8,5-13.9,5-15.1
			c0-0.2-0.7-0.4-1.5-0.4C45.7,168.2,44.6,169.4,44,170.9z M47.6,186.2c0.8,1.3-5.5,6.9-7.7,7c-2.8,0-2.1-2.5,1.3-5.4
			C44.4,185.1,46.6,184.5,47.6,186.2z" />
			<path class="st1"
				d="M42.4,188.3c-3,1.9-4.3,3.9-2.5,3.9c1.1-0.1,7.8-5.9,6.7-6C46.1,186.2,44.1,187.2,42.4,188.3z" />
			<path class="st1" d="M53.4,168.9c-0.8,0.6-5.3,10.7-5.3,12c0,0.2,4.8,0.3,10.8,0.3c14.6-0.1,19-1.1,22.5-5
			c2.9-3.2,2.9-3.2,0.8-5.4c-1.9-1.9-3.5-2.1-14.9-2.4C60.3,168.3,54.1,168.5,53.4,168.9z" />
			<path class="st1" d="M131.7,170.7c-21.4,5.4-34,21.6-36.2,46.4c-0.7,8.1-0.7,8.1,2.5,8.2c1.7,0.1,3.6,0.2,4.1,0.3
			c0.6,0.1,1.1-3.9,1.3-10c0.2-9.1,0.6-10.7,3.5-16.7c8.5-17.1,27.2-27.1,44.8-23.8c21.4,3.9,35.9,21.7,35.3,43.1
			c-0.2,7.5-0.2,7.5,3.4,7.8c3.7,0.3,3.7,0.3,3.7-7.6c0-20-12.6-40-29-46.1C156.8,169.3,140.5,168.5,131.7,170.7z" />
			<path class="st1" d="M467.6,171.6c-16.3,4-31.6,20.5-35.1,37.8c-1,4.9-0.6,15.1,0.7,15.9c0.6,0.3,1.9,0.5,2.8,0.2
			c1.4-0.4,1.6-1.4,1.3-6.2c-1.2-16.2,8.4-32.3,23.6-39.9c7.4-3.6,7.9-3.7,18.7-3.7c10.4,0,11.4,0.2,17.5,3.2
			c14.2,7,23.3,20.5,24.2,35.8c0.3,4.9,0.4,5,3.7,5.3c3.4,0.3,3.4,0.3,2.7-4.8c-1.5-11.5-8.5-25.1-16.9-32.7
			C499.8,172.4,482.2,168,467.6,171.6z" />
			<path class="st1" d="M137.9,176.2c-14.6,2.5-26.8,13.3-31.8,28.1c-1.8,5.1-2.1,8-1.8,14.6c1.3,24.1,22.5,41.5,46.8,38.1
			c13.3-1.8,25.3-10.8,31.3-23.5c2.9-6.2,3.2-7.6,3.2-16.8c0-9.2-0.3-10.6-3.2-16.7c-6-12.6-15.8-20.5-29-23.3
			C145.9,175.1,144.8,175.1,137.9,176.2z M157.4,190.1c6.2,3,11.5,8.5,14.5,14.9c2.1,4.7,2.4,6.5,2,13.1c-0.5,8.8-2.7,13.8-8.5,19.2
			c-6.4,6.2-11.7,8.3-20.3,8.2c-8.9,0-13.3-1.7-19.7-7.6c-6.4-5.8-9.3-12.4-9.3-21c0-13.4,7.7-24.2,20.5-28.4
			C142.1,186.7,152,187.5,157.4,190.1z" />
			<path class="st1" d="M138.6,189.1c-8,2.1-15.3,7.9-19.1,15.4c-2.5,4.8-3,15.4-1,21.4c6.2,18.8,30.5,24.9,45.7,11.5
			c10.7-9.4,11.8-27.9,2.3-39C160.3,191.1,147.3,186.8,138.6,189.1z M156.7,193c9.5,4.8,14.6,13.3,14.6,23.7
			c-0.1,7.5-1.8,11.9-6.8,17.5c-5.8,6.4-10.5,8.5-19.4,8.5c-8.7,0-13.2-2-19.2-8.2c-4.9-5-7-10.5-7.1-17.8
			c-0.1-10.7,5.6-19.3,15.8-24.2C140.8,189.5,150.3,189.7,156.7,193z" />
			<path class="st1" d="M136.7,192.6c-14.4,5.4-20.8,21.9-13.8,35.7c9.2,18.2,34.9,18.2,44.4,0c6.7-12.7,1.6-28-11.5-34.8
			C151.5,191.3,141.5,190.8,136.7,192.6z M148.5,212.8c2.1,2,2,5.3-0.1,7.6c-2,2.2-4.1,2.3-6.5,0.1c-3.4-3.1-1.3-9.3,3.2-9.3
			C146.1,211.2,147.7,211.9,148.5,212.8z" />
			<path class="st1" d="M142.3,213.4c-3.4,3.4,0.6,9,4.8,6.8c3.5-1.9,2-8-2-8C144.2,212.2,143,212.7,142.3,213.4z" />
			<path class="st1" d="M466.9,178.1c-7.3,2.4-11.2,4.9-17,10.8c-19.6,20.1-13.2,53.3,12.6,65.4c25.8,12.1,55.9-6.1,57.4-34.6
			c1-18.1-7.4-32.2-23.7-39.8C487.7,175.9,475.8,175.1,466.9,178.1z M491.1,190.4c18.2,7.8,23.1,31.6,9.7,46.5
			c-5.9,6.4-11.7,8.8-21.7,8.8c-9.9,0-14.5-2-21-8.6c-13.1-13.5-9.2-37.5,7.4-45.7C474.2,187,482.5,186.7,491.1,190.4z" />
			<path class="st1"
				d="M467.6,191.6c-14.4,6.7-20.3,24.1-13.1,38.4c9.4,18.6,36.6,20.4,48,3.1c8.4-12.7,5.7-29.5-6.2-38.6
			C488.5,188.6,476.6,187.4,467.6,191.6z M490.6,193.1c8.2,3.7,15.5,15,15.5,24.1c0,5.1-3,12.6-6.7,16.9
			c-12.3,14.4-35.7,11.3-43.9-5.7c-2.2-4.6-3-14.9-1.5-19.5c2.7-8.1,11-15.6,19.4-17.8C477.7,190,485.8,191,490.6,193.1z" />
			<path class="st1" d="M474.4,192.3c-6,1.1-9.5,3.2-14,8.3c-14.4,16.4-2.7,41.6,19.2,41.6c9.9-0.1,17.9-5.1,22.7-14.4
			c2.6-5,2.9-15.3,0.5-20.7C498,196.2,486.1,190,474.4,192.3z M484.1,215.3c1.5,2.8-1.1,6.9-4.5,6.9c-4.5,0-7-4.7-4.2-8.2
			C478,210.7,482,211.3,484.1,215.3z" />
			<path class="st1" d="M476.3,214.4c-3,3-0.1,7.5,4.3,6.4c2.2-0.6,2.6-1.1,2.3-3.9c-0.2-2.6-0.8-3.3-2.8-3.5
			C478.7,213.2,477,213.7,476.3,214.4z" />
			<path class="st1" d="M516.7,180.4c2.2,2.4,4.8,5.5,5.9,7c2,2.7,2,2.7,40.3,2.1c38.2-0.6,38.2-0.6,38.2-2.8c0-1.2-1.6-4-3.6-6.3
			c-3.6-4.2-3.6-4.2-44.1-4.2C512.8,176.2,512.8,176.2,516.7,180.4z" />
			<path class="st1" d="M539.4,190.9c-14.2,0.4-14.2,0.4-11.2,6.7c3,6.4,5.9,17.6,5.9,23.2c0,3.1,0,3.1,6.3,1.8
			c3.4-0.7,16.5-2,29.1-2.9c26.4-1.8,28.1-2.4,27-9.5c-0.3-2.3,0.3-6,2-10.9c1.4-4.1,2.6-7.8,2.6-8.3
			C601.1,190.3,572.9,190.2,539.4,190.9z" />
			<path class="st1" d="M30.4,199.7c0,3.8,0.2,5.3,0.4,3.2c0.2-2,0.2-5.2,0-7C30.6,194.2,30.4,195.8,30.4,199.7z" />
			<path class="st1" d="M54.4,198.1c-11.6,0.3-21.5,0.9-21.9,1.4c-0.4,0.4-0.1,4.4,0.8,9c1.1,5.7,1.3,8.6,0.6,9.5
			c-0.6,0.7-0.8,1.5-0.5,1.8c0.7,0.8,42.3,0.5,50.5-0.3c6.2-0.6,6.2-0.6,6.2-4.7c0-2.2,0.7-6.8,1.5-10.1s1.4-6.3,1.5-6.8
			C93.1,197.2,89.6,197.2,54.4,198.1z" />
			<path class="st1" d="M372.1,216.3c-27.8,0.3-78.7,0.7-113.1,0.8c-62.6,0.1-62.6,0.1-63.3,3.8c-0.3,2.1-0.6,4.6-0.6,5.5
			c0,1.7,6.3,1.8,118.1,1.8c118.1,0,118.1,0,117.7-5.5c-0.3-3-0.8-5.8-1.1-6.2C428.9,215.6,429.2,215.6,372.1,216.3z" />
			<path class="st1"
				d="M64.9,221.2c-14.1,0.3-26,0.8-26.4,1.2c-1.4,1.5,1.8,3.6,7.9,5.2c3.4,0.8,12.3,2,19.7,2.6
			c7.9,0.5,16.2,1.8,20,3c3.6,1.1,6.8,2,7.3,2c0.4,0,0.7-3.3,0.7-7.3c0-6.3-0.2-7.3-1.7-7.2C91.4,220.7,79,220.9,64.9,221.2z" />
			<path class="st1" d="M499.2,114.7c-17.9-11-38.7-20.7-52.9-24.6c-14.5-4-15-4.3-9.6-5.8c3.9-1.1,5.5-1,14.3,1.3
			c12.3,3.1,23.9,7.1,36.9,12.5c13.1,5.5,47.6,22.2,47.6,23.1s-8.9,2-16.5,2C513.2,123.2,512.5,122.8,499.2,114.7z" />
			<path class="st1" d="M275.6,88.2c-3.8-0.8-2.6-1.5,6.8-3.9c23.6-6.1,87.7-7.9,127.3-3.6c23,2.5,23.8,2.7,23.8,3.5
			c0,2-7.5,1.9-21.9-0.3c-14-2-19.2-2.2-53-2.3c-40,0-57.6,1.4-68.5,5.6C285.3,89.1,280.9,89.4,275.6,88.2z" />
			<path class="st1" d="M430,213.9c0.2-0.3,0.5-1.3,0.7-2.3c0.8-4.1,4.7-13.8,7.2-18.2c3.8-6.6,13.9-16.2,20.4-19.4
			c18.7-9.4,44.5-4,57.7,12.1c7.7,9.4,11.4,18.8,13.9,35.4c0.6,4.1,2.7,4.6,3.2,0.8c0.7-4.2-3-18.6-6.5-26.1
			c-2.7-5.7-5.5-9.4-11.7-15.6c-11.5-11.4-20.7-15.4-35.6-15.4c-15,0-26.8,5-37,15.5c-11.5,11.8-13.6,23.6-13.5,26
			c0,1.9,0.3,3.7,0.3,3.7C429.4,211.7,429.7,212.9,430,213.9z" />
		</g>
		<g id="right" class="st2">
			<path class="st1" d="M177.3,478.3c16.9-3.8,29-16.7,32-33.9c3-17.1-6.5-35-23-43.1c-6.1-3-7.1-3.2-17.5-3.2s-11.4,0.2-17.6,3.2
			c-23.7,11.7-30.5,41.6-14.3,62.8C145.5,475.4,163,481.6,177.3,478.3z M155.7,464.3c-17.2-8.7-21.3-31.3-8.5-46
			c8.1-9.1,23-11.9,34.3-6.4c10.7,5.2,16.3,14.4,16.3,26.7c0,5.9-0.5,8.5-2.4,12c-4.1,7.9-10.5,13.3-19.1,16.1
			C171.6,468.3,161.1,467.1,155.7,464.3z" />
			<path class="st1" d="M177.1,465.2c11.7-3.8,20.2-15.3,20.2-27.1c0-10-7.7-21.4-17.2-25.5c-14.1-6.1-31.2,0.6-37.4,14.7
			c-2.5,5.6-2.3,16.6,0.3,22.4C148.7,462.3,164.2,469.4,177.1,465.2z M155.9,461.2c-15.5-9.1-18.2-29.3-5.5-41.7
			c17.7-17.3,46.9-3.4,44.6,21.3c-0.9,9.8-7.9,18.9-17.3,22.4C171.7,465.4,161.5,464.5,155.9,461.2z" />
			<path class="st1" d="M178,462c5.1-1.9,11.2-7.6,13.8-12.9c2.6-5.4,2.7-16.6,0.1-21.5c-5-9.5-12.8-14.4-23.1-14.4
			s-18.1,4.9-23.1,14.4c-2.7,5.1-2.5,16.2,0.3,21.6c2.7,5,7.5,9.8,12.2,12C163,463.6,172.7,463.9,178,462z M164.7,441.1
			c-1.9-3-1.1-6.2,2.1-7.7c4.9-2.2,9.6,4.2,6,8.2C170.3,444.3,166.7,444.1,164.7,441.1z" />
			<path class="st1" d="M171.7,441c2.1-2.1,2-3.7-0.4-5.9c-1.8-1.7-2.1-1.7-4.5-0.1c-1.4,0.9-2.5,2.3-2.5,3.1c0,1.7,2.7,4.5,4.5,4.5
			C169.5,442.6,170.9,441.9,171.7,441z" />
			<path class="st1" d="M516.1,476.8c11.8-4.2,22-14.2,25.9-25.5c1.2-3.5,1.8-8.1,1.8-14.2c0-8-0.4-9.7-3.2-15.7
			c-15.2-32.2-58.9-32.8-74.5-1.1c-3.1,6.4-3.3,7.4-3.3,17.3c0,9.7,0.2,11,3.1,17c4.6,9.5,10.2,15.3,19.1,19.7
			c6.8,3.3,8.5,3.7,16.7,4C508.7,478.6,512,478.2,516.1,476.8z M491.3,464.4c-14.7-6.3-21.6-24.9-14.6-39.3
			c2.9-5.9,7.3-10.3,13.9-13.7c6-3.3,19.4-3.3,25.4,0c5.4,2.8,10.7,8.1,13.5,13.5c3.3,6.2,3.3,19.4,0,25.7
			C521.9,465.1,506.2,470.8,491.3,464.4z" />
			<path class="st1"
				d="M514.8,463.3c9.7-4.6,15.4-12.8,16.3-23.3c1.3-16.6-11.6-30.4-28.4-30.4c-14.6,0-27.3,12.8-27.4,27.6
			c0,11.2,4.7,19.8,13.7,25.1c3.7,2.2,6.1,2.7,12.7,3C508.7,465.7,510.5,465.4,514.8,463.3z M495.2,463
			c-11.5-3.4-20.1-16.6-18.4-28.2c3.3-22.2,29.5-31.1,45.3-15.4c10.2,10.3,9.6,28.5-1.3,38C513.3,464,504.9,465.9,495.2,463z" />
			<path class="st1" d="M509.5,462.2c11.8-3.2,18.7-12.3,18.7-24.6c0.1-17.1-16.3-28.9-33.1-23.8c-5.3,1.6-13.2,8.8-15.3,14
			c-4.9,11.9,0,26,11.1,32C497,463.1,503.4,463.9,509.5,462.2z M499.8,441.2c-3.4-3.4-1.6-8.6,3.1-8.6c5.1,0,7.3,6.5,3.2,9.4
			C503.1,444.1,502.6,444,499.8,441.2z" />
			<path class="st1" d="M506.2,440.2c1.6-1.9,1.1-4.6-1.2-6c-2.5-1.6-5.2,0.4-5.2,4c0,2.4,0.5,3,2.6,3.2
			C503.8,441.6,505.5,441,506.2,440.2z" />
			<path class="st1" d="M561.8,454.4c3.4-1.1,11.9-2.3,19.5-2.9c18.9-1.5,29-4.3,29-8c0-0.5-10.3-0.9-24.8-1
			c-13.6-0.1-26.2-0.2-28.1-0.2c-3.5-0.2-3.5-0.2-3.2,6.3c0.1,3.6,0.5,6.8,0.9,7.1C555.5,456,558.5,455.5,561.8,454.4z" />
			<path class="st1" d="M452.7,444.4c-0.4-2.9-0.7-5.4-0.8-5.5c-0.5-0.6-141.8-0.3-142.8,0.3c-0.7,0.4-0.8,0.3-0.4-0.4
			c0.5-0.9-10-1.2-42.1-1.3c-23.5,0-43.7-0.2-44.8-0.4c-3.2-0.6-4.5,1.4-4.5,7.1c0,5.4,0,5.4,118,5.4
			C453.4,449.6,453.4,449.6,452.7,444.4z" />
			<path class="st1" d="M459.3,446.6c2.5-0.5,2.5-0.7,2.5-10.1c0-9,0.2-9.9,3.8-17.1c5.8-11.9,14.8-19.1,28-22.4
			c26.4-6.8,53.1,15.2,51.5,42.7c-0.4,7-0.4,7,3.6,6.7c4-0.3,4-0.3,3.7-7.3c-0.4-12.5-3.7-21.8-11.3-32
			c-7.6-10.3-22.2-16.5-38.6-16.5c-9,0-18.2,1.9-24.6,5.2c-7.8,4-16.5,14.8-20.7,25.7c-3.8,10.1-4.8,25.8-1.6,25.7
			C456.3,447.2,457.9,446.9,459.3,446.6z" />
			<path class="st1"
				d="M216.5,441.4c1.2-15.4-9-33.8-23.9-43.5c-7.2-4.6-14-6.2-24.8-5.9c-19.2,0.7-32.8,9.4-41.5,26.5
			c-3.4,6.8-6,15.3-6,19.6c0,2.9,0.2,3.1,2.8,2.7c2.7-0.4,2.9-0.7,4-7.8c2.8-17.6,13.1-29.7,30.2-35.3c7.2-2.4,11.6-2.6,19.2-1
			c17.2,3.6,30.8,17.4,33.9,34.4c0.6,3.3,0.8,8.1,0.5,10.7c-0.7,4.8-0.7,4.8,2.3,4.8C216,446.6,216.1,446.4,216.5,441.4z" />
			<path class="st1" d="M118.8,440.4c2.3-20.2,12.7-36.8,27.7-44.3c8.9-4.4,16.3-5.9,27.1-5.2c7.3,0.4,9.9,1,15.4,3.7
			c13,6.4,24.6,21.1,27.8,35.2c1.3,6.1,3.5,7.7,3.5,2.6c0-4.8-2.6-13.3-6.3-20.1c-6.7-12.7-21.6-23.2-36.7-25.7
			c-27.3-4.6-54.4,15.7-60.6,45.4c-1.7,8.1-1.6,13.7,0.2,14.3C117.7,446.6,118.4,444.4,118.8,440.4z" />
			<path class="st1" d="M114.3,441.3c0-5.7,2.4-15.2,5.5-22.2c1.4-3.2,2.5-5.9,2.5-6.1s-8.9-0.5-19.8-0.5
			c-10.8-0.1-27.7-0.4-37.5-0.8c-14.4-0.5-17.7-0.4-17.7,0.7c0,0.8,1.1,4.7,2.6,8.8c1.7,5.1,2.3,8.4,1.9,10.8
			c-0.5,2.7-0.2,3.8,1.4,5.3c1.9,1.8,4.6,2.2,20.9,3.2c20,1.3,34.3,2.8,37.9,4.2C114.2,445.5,114.3,445.3,114.3,441.3z" />
			<path class="st1" d="M614.5,441.1c0.4-0.5,0.3-1.4-0.2-2c-0.7-0.9-0.7-2.7-0.1-5.6c0.6-2.4,1.1-6.5,1.1-9.1c0-4.8,0-4.8-7.8-4.8
			c-4.3,0-18.1-0.3-30.5-0.7c-22.6-0.6-22.6-0.6-21.2,4.1c0.8,2.7,1.8,7.7,2.1,11.2c0.7,6.4,0.7,6.4,11.9,6.4
			c6.1,0,18.6,0.3,27.6,0.6C606.4,441.6,614.1,441.5,614.5,441.1z" />
			<path class="st1" d="M557.3,438.4c0-10.8-6.2-27-13.4-35.4c-14.7-17.2-43.5-22.4-66.3-11.9c-14.3,6.5-26.4,25.6-26.2,41.4
			c0,6.4,1.4,4.8,2.4-3c1-8.2,7.7-20.3,15.3-27.9c6.2-6.2,7.5-7,15.2-9.5c9.7-3,21.9-3.7,31-1.5c8.1,1.8,19,7.3,23.2,11.7
			c8.2,8.5,14.8,23.4,14.8,33.4c0,4.2,0.3,4.9,2,4.9C556.7,440.6,557.3,439.9,557.3,438.4z" />
			<path class="st1" d="M449.8,432.9c0.3-2.7,0.9-6.5,1.2-8.6c1.6-11.7,14.6-28.9,25.8-34.1c10.9-5.2,26.6-7,38.7-4.5
			c7.8,1.7,19,7.1,24.1,11.8c4.4,4.1,4.4,4.1,13.8,4.1c5.2,0,10.4-0.3,11.6-0.6c2.3-0.6,2.3-0.6,0.3-3.1c-2.4-3.1-2.5-4.6-0.5-6.3
			c0.9-0.7,1.4-1.4,1.2-1.6c-0.2-0.2-12-1.7-26.3-3.4c-26.5-3.1-75.9-7-89.5-7c-7.5,0-7.5,0-6.6,7.8c0.4,4.2,0.7,17.3,0.5,29
			c-0.3,21.2-0.3,21.2,2.4,21.2C448.9,437.6,449.2,437.2,449.8,432.9z M447.3,387.6c0-2.2,0.7-2.7,5.9-3.4c4.2-0.6,6.1,0.1,6.1,2.3
			c0,2.7-0.9,3.1-6.7,3.1C447.9,389.6,447.3,389.4,447.3,387.6z" />
			<path class="st1" d="M458.3,387.1c0-1.1-1.2-1.5-5-1.5s-5,0.4-5,1.5s1.2,1.5,5,1.5S458.3,388.2,458.3,387.1z" />
			<path class="st1" d="M441.9,436.5c2-3.4,1.6-52.4-0.6-55.9c-0.6-1-9.5-1.7-37.2-3.1c-50.5-2.4-96.9-4.1-97.5-3.5
			c-0.5,0.4,1.3,44.5,2.3,56.4c0.6,6.2,0.6,6.2,26.2,6.2c14.1,0,43.7,0.3,65.8,0.7C434.8,437.8,441.1,437.7,441.9,436.5z M316.2,383
			c-0.9-1.1-1-2-0.2-3.2c0.8-1.4,2.7-1.7,9.9-1.7c7.8,0,8.9,0.2,9.2,1.8c0.8,4.1-0.4,4.7-9.1,4.7C319.5,384.6,317.2,384.2,316.2,383
			z" />
			<path class="st1" d="M333.9,382.1c1.1-2.8-1.1-3.6-9.2-3.3c-7.1,0.3-7.9,0.5-7.9,2.3c0,1.8,0.8,2,8.3,2.3
			C331.9,383.6,333.4,383.4,333.9,382.1z" />
			<path class="st1" d="M307.7,431c-0.2-3.2-0.9-17.4-1.5-31.4s-1.2-25.6-1.4-25.8c-0.3-0.3-110.9-3.1-111.3-2.7
			c-0.1,0.1-0.7,3.1-1.3,6.6c-1.5,9.6-0.8,11.9,5.2,15.4c12.7,7.4,23.8,25.7,23.9,39.3c0,3.2,0,3.2,15.2,3.2c8.4,0,28,0.3,43.5,0.7
			C308.1,436.9,308.1,436.9,307.7,431z M212.2,383c-0.9-1.1-1-2-0.2-3.2c0.8-1.4,2.7-1.7,9.9-1.7c7.8,0,8.9,0.2,9.2,1.8
			c0.8,4.1-0.4,4.7-9.1,4.7C215.5,384.6,213.2,384.2,212.2,383z" />
			<path class="st1" d="M229.9,382.1c1.1-2.8-1.1-3.6-9.2-3.3c-7.1,0.3-7.9,0.5-7.9,2.3c0,1.8,0.8,2,8.3,2.3
			C227.9,383.6,229.4,383.4,229.9,382.1z" />
			<path class="st1"
				d="M618.3,420.6c0-3.3-0.4-6-1-6c-0.6,0-1,2.7-1,6c0,3.3,0.4,6,1,6C617.9,426.6,618.3,423.9,618.3,420.6z" />
			<path class="st1" d="M615.3,416.6c0-1.2,0.8-2.8,1.7-3.5c1.5-1.1,1.3-1.3-1.8-2c-5.7-1.2-8.8-3.2-8.2-5.3
			c0.4-1.8-2.1-13.4-3.6-15.9c-0.4-0.7-1.2-0.9-2-0.4c-1.1,0.7-0.9,2.1,0.9,7.7c1.3,3.8,2.6,7.4,3.1,7.9c1,1.3-37.9-0.2-40.3-1.5
			c-1.8-1-18.8-1.4-18.8-0.5c0,0.3,1.9,3.7,4.2,7.5c4.1,7,4.1,7,15.7,7c6.4,0,20,0.3,30.3,0.7C615.3,418.9,615.3,418.9,615.3,416.6z
			 M603,410.8c-3.2-3.3-3.4-4.2-0.8-4.2c2.1,0,8.1,4.6,8.1,6.1C610.3,414.7,605.5,413.4,603,410.8z" />
			<path class="st1" d="M606.8,410.1c-1.7-1.4-3.7-2.5-4.5-2.5c-0.9,0-0.4,0.9,1.5,2.5c1.6,1.3,3.7,2.4,4.5,2.4
			C609.2,412.5,608.7,411.6,606.8,410.1z" />
			<path class="st1" d="M129.7,404.1c5.8-6.5,5.8-6.5-34.7-6.5s-40.5,0-43.5,2.8c-3.1,2.9-5.1,7.7-3.7,9c0.3,0.4,17.6,0.8,38.3,0.9
			C123.8,410.6,123.8,410.6,129.7,404.1z" />
			<path class="st1" d="M602.9,402.9c-0.3-1-1.5-4.8-2.6-8.6c-2.7-8.9-5.4-10.6-23-15.1c-24.2-6.2-74.1-14.6-86.8-14.6
			c-3.9,0-11.3-1.8-16.8-4c-2.5-1.1-4.3-1-10.9,0.5c-7.5,1.6-7.8,1.8-5.5,3c1.4,0.7,9.5,2,18,3c43.7,4.7,94.5,13.5,102.3,17.7
			c3,1.6,1.2,2.1-2,0.5c-8.2-4.2-57.7-12.6-101.2-17.2c-8.4-0.8-15.4-2.1-17.3-3.1c-2.4-1.2-4.8-1.5-9.5-1.1c-3.5,0.2-6.6,0.7-6.9,1
			c-0.3,0.3,0,3.2,0.7,6.5c1.5,7,1.8,7.2,12,7.2c13,0,51,3.1,82.9,6.6c26,2.9,33.7,3.5,38.3,2.7c3.2-0.5,9-0.6,13-0.1
			c8.4,0.9,9.5,1.8,12.3,10.7c1.1,3.4,2.3,6.1,2.7,6.1C603.1,404.6,603.2,403.8,602.9,402.9z" />
			<path class="st1" d="M597.9,396.4c-2.2-6.1-2.4-6.3-6.7-7.1c-9.7-1.8-26.9,1.1-26.9,4.6c0,0.7,1.4,2.6,3,4.2
			c2.7,2.6,4.1,3.1,10.8,3.7c4.2,0.3,11,0.7,14.9,0.7C600.3,402.6,600.3,402.6,597.9,396.4z" />
			<path class="st1" d="M142,392.9c8.5-5.4,16.5-7.6,27.3-7.7c6.6,0,11.1,0.5,14.8,1.8c2.9,1,5.5,1.6,5.6,1.5
			c0.3-0.4,2.4-17.3,2.2-17.5c-0.1-0.1-18.6-0.7-41.1-1.3c-22.6-0.6-47.5-1.9-55.5-2.7c-16.1-1.7-27.1-1.6-27.7,0.3
			c-0.3,0.8,1.6,1.4,5.6,1.9c3.3,0.3,6.9,1.2,7.8,1.9c1.7,1.3,1.7,1.5-0.6,3.9c-1.4,1.4-6,4-10.3,5.8c-7.9,3.2-7.9,3.2-7.6,9.3
			c0.3,6,0.3,6,37.4,6C137,396.1,137,396.1,142,392.9z" />
			<path class="st1" d="M61.3,390.5c0-5.8-0.1-6-2.3-5.3c-3,0.9-2.9,0.7-3.5,6.4c-0.5,5-0.5,5,2.7,5
			C61.3,396.6,61.3,396.6,61.3,390.5z" />
			<path class="st1" d="M601.2,387.7c1.1-0.7,0.9-1.3-0.9-3.1c-4-4-12.8-7.1-29.8-10.6c-19.1-4-79.8-14.4-83.7-14.4
			c-1.4,0-4-0.7-5.7-1.6c-2.5-1.3-3.5-1.4-5.7-0.4c-2.6,1.2-2.6,1.2,1.6,3c2.4,1.1,9.2,2.3,16,3c27.3,2.6,58.3,7.9,82.8,14.1
			c14.2,3.7,18.1,5.2,21.5,8.4C599,387.7,600.3,388.2,601.2,387.7z" />
			<path class="st1" d="M59.4,383.9c1.1-0.2,2-2.3,2.7-5.6c0.6-2.9,1.4-6,1.7-6.9c0.6-1.4,0.2-1.8-1.8-1.8c-1.7,0-2.8,0.7-3.2,2.1
			c-1.1,3.3-2.2,12.9-1.6,12.8C57.5,384.4,58.5,384.2,59.4,383.9z" />
			<path class="st1" d="M71.9,378.7c4.5-2.1,8.4-4.3,8.8-4.9c1-1.6-2.1-2.8-8.7-3.6c-5.8-0.6-5.8-0.6-7.1,2.6
			c-1.7,4.3-2.8,9.8-1.8,9.8C63.5,382.6,67.5,380.8,71.9,378.7z" />
			<path class="st1" d="M441.3,377.1c0-0.6-0.5-3.6-1.1-6.6c-1.1-5.5-1.1-5.5-21.7-7.2c-11.4-0.9-32-1.9-45.7-2.2
			c-13.8-0.3-34.8-0.8-46.9-1.2c-21.9-0.6-21.9-0.6-21.2,4.3c1.2,8.4,1.2,8.4,6.4,8.4c11.9,0.1,115.7,4.5,125.9,5.4
			C439.9,378.2,441.3,378,441.3,377.1z" />
			<path class="st1"
				d="M304.3,370.7c0-1-0.3-3.9-0.6-6.3c-0.6-4.5-0.6-4.5-6.8-5.2c-6-0.7-86.2-4.6-94.2-4.6c-4,0-4,0-6.3,7.1
			c-1.2,3.9-2.1,7.3-1.8,7.5c0.3,0.3,17.3,0.9,37.8,1.4c20.6,0.5,45.2,1.1,54.6,1.4C303.3,372.5,304.3,372.4,304.3,370.7z" />
			<path class="st1"
				d="M66.3,367.1c1-1.2,0.7-1.5-1.4-2.1c-2.9-0.7-4.6,0.1-4.6,2.2C60.3,369.1,64.7,369,66.3,367.1z" />
			<path class="st1" d="M67.6,364c0.4-0.4,0.7-2.9,0.7-5.6c0-4.3-0.3-5-2.6-5.8c-4.1-1.6-4.4-1.3-4.4,5c0,4.5,0.4,6,1.4,6
			c0.8,0,2.1,0.2,2.8,0.5C66.3,364.4,67.2,364.3,67.6,364z" />
			<path class="st1" d="M460,360.6c3.9-1,7.7-2,8.4-2.2c3.2-1.1-36.7-23.6-66.4-37.6c-23.7-11.1-23.7-11.1-28.9-10.2
			c-2.8,0.6-5.3,1.1-5.4,1.3c-0.2,0.1,4.7,2.5,10.9,5.2c18.1,8.1,56.8,32.5,68,42.9C449.8,363,450.3,363,460,360.6z" />
			<path class="st1" d="M307.3,356.9c0-0.5-2.3-11.7-5.2-25c-5.3-24.3-5.3-24.3-8.5-24.3c-3,0-3.2,0.2-2.8,2.8
			c0.3,1.5,1.7,11.3,3,21.7c3.8,28.3,2.9,25.5,8.6,25.5C305.1,357.6,307.3,357.3,307.3,356.9z" />
			<path class="st1"
				d="M295.8,354.4c-0.2-1.3-1.6-11.1-3-21.8c-3.7-28.3-2-25-12.9-25c-10.2,0-37.2,2.4-45.1,4
			c-12.9,2.5-13.5,2.9-20.3,13.1c-5.9,8.8-15.7,26.7-15,27.4c0.3,0.3,87.4,4.5,93.6,4.5C295.9,356.6,296.3,356.3,295.8,354.4z" />
			<path class="st1" d="M202.3,343.4c2.9-5.6,7.7-13.9,10.6-18.2c3-4.4,5.2-8.2,4.9-8.4c-0.7-0.7-12.9,5.2-20,9.7
			c-11.2,7.1-21.9,15.6-26.4,21c-4.3,5.1-4.3,5.1,7.7,5.1c6.6,0,13.3,0.3,14.9,0.6C196.8,353.8,197,353.5,202.3,343.4z" />
			<path class="st1" d="M70.3,351.6c0.8-0.5,5.8-1,11-1c13.5-0.1,40.2-1.7,42.5-2.7c1.4-0.5-0.8-1.1-7-1.9c-7.1-0.9-13.2-0.9-29,0.2
			c-11,0.8-21.6,2-23.5,2.6c-3.5,1.1-3.5,1.1,0,2.4C68.7,352.8,68.5,352.8,70.3,351.6z" />
			<path class="st1"
				d="M146.6,337.1c17.9-11,38.7-20.7,52.9-24.6c14.5-4,15-4.3,9.6-5.8c-3.9-1.1-5.5-1-14.3,1.3
			c-12.3,3.1-23.9,7.1-36.9,12.5c-13.1,5.5-47.6,22.2-47.6,23.1c0,0.9,8.9,2,16.5,2C132.6,345.6,133.3,345.2,146.6,337.1z" />
			<path class="st1" d="M372.8,309.7c3.9-0.8,2.7-1.5-7-3.9c-24.3-6.1-90.2-7.9-131-3.6c-23.7,2.5-24.5,2.7-24.5,3.5
			c0,2,7.7,1.9,22.5-0.3c14.4-2,19.8-2.2,54.5-2.3c41.2,0,59.3,1.4,70.5,5.6C362.8,310.6,367.3,310.9,372.8,309.7z" />
			<path class="st1" d="M317.5,304.3c20.3,0.9,34.2,3.1,44.1,6.8c14.2,5.2,30.6,13.4,45.9,22.8c16,9.9,38.9,26.2,38.9,27.8
			c0.1,0.5-1.9,1.1-4.4,1.3c-4.4,0.3-4.7,0.1-12-7.3c-4.1-4.1-7.9-7.5-8.4-7.5s0.8,1.6,3,3.5c2.1,1.9,3.4,3.4,2.8,3.5
			c-1.3,0-8-6.9-7.6-7.8c0.2-0.3-0.2-0.8-0.9-1.1c-0.7-0.2-0.9,0.1-0.4,0.9c0.5,0.9,0.4,1.1-0.4,0.6c-0.6-0.4-0.9-1.1-0.6-1.6
			c1.7-2.8-37-24.8-57.3-32.6c-14.5-5.5-66.9-9-97.7-6.5c-26.4,2.2-37.7,4.5-52.1,11.1c-13.4,6-32.7,19.9-40.6,29.3
			c-4.7,5.4-4.7,5.4,11.2,6.2c8.8,0.4,16,1,16,1.3c0,0.3-1,3.7-2.2,7.5c-2.3,7-2.3,7-31.3,6.3c-34.2-0.9-57.1-2-78.9-3.7
			c-15.8-1.3-15.8-1.3-15.3-6.7c0.3-3,0.8-5.6,1.1-5.9c0.3-0.3,10.3-0.9,22.3-1.4c34.1-1.3,35.7-1.7,54.2-13.2
			C193.4,308.9,236.4,300.4,317.5,304.3z" />
			<path class="st1" d="M318,309.1c16.6,1,34.8,3.6,41.3,5.8c17.2,6.1,50.1,24,49.5,27.1c-0.2,0.8-1.3,1.6-2.5,1.8
			c-4,0.6-5.5,3.5-5.1,10.3c0.3,6.2,0.3,6.2-21.7,5.5c-12.1-0.3-29-0.9-37.5-1.2c-8.5-0.4-19.3-0.7-23.9-0.8
			c-8.4-0.1-8.4-0.1-13.8-24.1c-2.9-13.2-5.3-24.3-5.3-24.8C299,307.9,299.7,307.9,318,309.1z" />
			<path class="st1" d="M415.8,347.3c6.1,6.2,1.9,12.4-8,11.9c-5.6-0.3-5.6-0.3-5.9-6.3c-0.4-7,0.9-8.5,7.1-8.5
			C411.9,344.4,413.5,345.1,415.8,347.3z" />
			<path class="st1" d="M425.3,354.9c5.9,5.4,5.9,5.4,2.3,5.5c-3.9,0-5.9-1.4-5.9-4.2c0-1-0.7-3-1.6-4.3
			C417.7,348.2,418.7,348.8,425.3,354.9z" />
			<path class="st1" d="M420.7,356.5c0,1.4,0.5,3,1.2,3.7c1.3,1.3,10.8,1.7,10.8,0.5c0-0.4-1-1.8-2.2-3.2c-1.3-1.4-0.4-0.8,2,1.4
			c2.3,2.2,3.8,4.1,3.2,4.3c-1.4,0.5-24.2-1.7-24.9-2.3c-0.2-0.3,0.4-0.5,1.4-0.5c1.1,0,3.4-1.4,5.2-3.2
			C420.7,354,420.7,354,420.7,356.5z" />
		</g>
		<g id="top" class="st2">
			<path class="st3" d="M423.2,367.1c-4.1-1-7-3.5-8.8-7.9c-1.1-2.5-1.1-3.7-0.3-4.7c1.3-1.6,5.9-1.9,5.9-0.4c0,0.6,0.6,1,1.3,1
			c1,0,7.7,10.7,7.7,12.4C429,368.2,427.5,368.1,423.2,367.1z" />
			<path class="st3" d="M319.1,366.4c-12-0.3-14.8-0.7-17-2.2c-5.7-4-10-5.4-23.3-7.7c-13.2-2.3-18.8-4.2-23.3-7.9
			c-2-1.6-1.9-1.6,0.5-1c18.6,4.9,41.4,6.9,93.9,8.5c19,0.6,34.7,1.2,34.9,1.5c0.2,0.2,0.2,1.1-0.1,2c-0.4,1-2,1.5-4.4,1.6
			c-2.1,0-9.7,0.4-16.9,0.8c-10.5,0.6-14,1.2-17.3,2.9c-2.7,1.4-5.6,2.1-8.4,2C335.4,366.8,327,366.5,319.1,366.4z" />
			<path class="st3" d="M345.4,366.2c0.9-1.5,11.7-3,25.4-3.6c13.2-0.6,13.2-0.6,13.2,2c0,2.5,0,2.5-19.6,2.5
			C353.7,367.1,345.1,366.7,345.4,366.2z" />
			<path class="st3" d="M398.3,366.3c-12.5-0.2-13.3-0.4-13.3-2.2c0-1.9,0.7-2,15-2c13.9,0,15,0.1,16,2c0.6,1.1,0.7,2.1,0.3,2.1
			C414.2,366.6,410.5,366.6,398.3,366.3z" />
			<path class="st3" d="M284.3,364.1c-3.9-1-8-1.6-9.1-1.3c-2.7,0.7-20.5-5.1-26.5-8.5c-5.8-3.3-20.8-19.8-23.8-26.1
			c-2.5-5.4-7.2-23.3-9.3-35.8c-3.6-21.4-3.8-50.5-0.5-71.8c1.5-9.8,6.4-30.2,8.5-35.5c2.6-6.8,8.4-14.8,15.6-21.6
			c7.4-7.1,10.9-9.1,23.8-13.3c10-3.3,16-4.2,7.5-1.2c-19,6.8-33.5,18.9-39.7,32.9c-3.2,7.3-6.5,17.4-7.3,22.3
			c-0.4,2.4-1.5,4.9-2.5,5.6c-5.9,4.2-6,86.2-0.1,90.6c0.9,0.7,2.5,4.6,3.4,8.7c4.2,17.9,12.1,31.6,23,39.7
			c7,5.2,20.9,12.1,25.9,12.8c2.2,0.4,1.5-0.1-2.4-1.6c-3.6-1.3-5.8-2.6-5.8-3.6c0-1.2,0.6-1.4,2.8-0.8c1.5,0.4,7.8,1.5,14,2.5
			c7.9,1.3,12.6,2.6,15.7,4.5c2.5,1.4,4.5,2.8,4.5,3C302,366.8,290.8,365.8,284.3,364.1z" />
			<path class="st3" d="M430.7,365.4c-0.4-0.3-0.7-1-0.7-1.5c0-0.4,20.9-0.8,46.5-0.8c40.9,0,46.4,0.2,45.9,1.5s-6.6,1.5-45.8,1.5
			C451.7,366.1,431,365.8,430.7,365.4z" />
			<path class="st3" d="M523,365.2c0-2.5,4.9-2.9,46.5-3.5c24.2-0.3,50.4-0.9,58.3-1.2c14.2-0.7,14.2-0.7,14.2,2.4
			c0,3.2,0,3.2-59.5,3.2C549,366.1,523,365.7,523,365.2z" />
			<path class="st3" d="M643.7,365.4c-0.4-0.3-0.7-1.8-0.7-3.3c0-2.6,0-2.6,17.8-4.3c9.7-0.9,24.9-2.2,33.7-2.8
			c19-1.2,37.8-3.4,45.7-5.3c6.9-1.6,16.1-7,19.5-11.2c1.3-1.8,3.3-5.8,4.4-9c2-5.9,4.8-9.4,7.6-9.4c2.2,0,1.2,4.2-3.2,13.5
			c-4.1,8.6-10,14.8-15.9,16.9c-5.7,1.9-17.6,4.4-26.7,5.6c-8.3,1-24,4.3-27.9,5.8c-1.4,0.6-3.2,1.7-3.9,2.6
			c-1.2,1.4-4.6,1.6-25.6,1.6C655.2,366.1,644,365.8,643.7,365.4z" />
			<path class="st3" d="M695,365.2c0-2.2,10.6-4.9,34.5-8.6c27.8-4.3,32.8-7.3,40.5-24c4.8-10.3,7.6-23,9.5-43.6
			c2.8-30.9,1.2-71.6-3.7-93.9c-2.4-10.9-8-23.9-12.6-29.1c-5.7-6.5-16.7-10.4-36.2-12.9c-16.3-2-32-6-32-8.2
			c0-1.5,6.1-0.8,17.3,2.2c6.2,1.6,17.3,3.8,24.8,4.9c25.4,3.9,31.4,7,38.8,20.5c8.6,15.6,12.1,39.4,12.1,82.6
			c0,43.3-3.5,67-12.1,82.7c-7.3,13.3-13.7,16.6-38.8,20.4c-7.5,1.1-18.6,3.3-24.8,4.9C701,366.1,695,366.8,695,365.2z" />
			<path class="st3" d="M428,360c-0.7-1.1-0.9-2.3-0.6-2.6c0.7-0.8,96.3-1,97-0.3c0.3,0.3,0.3,1.6-0.1,2.8c-0.5,2.2-0.5,2.2-47.9,2.2
			C429.4,362.1,429.1,362.1,428,360z" />
			<path class="st3" d="M385.7,359.1c0.5-1.9,1.4-2,13.4-2c11.8,0,12.9,0.2,13.9,2c1,2,0.8,2-13.4,2
			C385.7,361.1,385.2,361,385.7,359.1z" />
			<path class="st3" d="M641,356c-0.7-1.1-1-2.2-0.8-2.3c0.2-0.2,10.4-1.1,22.8-2c28.4-2.2,64.5-5.5,67.9-6.2
			c9.5-2.1,24.7-7.9,27.5-10.6c3.1-3,3.1-3-0.4-0.5c-4.8,3.4-22.7,9.3-32.5,10.6c-8,1.1-39.3,3.9-70.3,6.2
			c-15.6,1.2-16.3,1.2-17.6-0.7c-1.1-1.4-1.1-2.1-0.3-2.5c0.7-0.3,7.7-1.2,15.7-1.9c20.3-1.7,36.3-6.8,44.4-13.9
			c1.6-1.4,6-1.7,33.2-2.1c31.3-0.5,31.3-0.5,30.8,2.5c-1.1,6.7-12.4,14.1-25.4,16.8c-8.8,1.9-22.3,3.3-44.5,4.7
			c-8.8,0.6-22.2,1.7-29.9,2.5C643.4,358.6,642.3,358.5,641,356z" />
			<path class="st3" d="M255.4,353c-3.8-2.3-8.8-5.9-11.1-8c-4.1-3.8-4.2-3.9-1.7-3.9c1.5,0,4.1,1.3,6.1,3c1.9,1.7,3.9,2.7,4.5,2.4
			c0.6-0.4,0.8-0.3,0.4,0.4c-0.6,1,3,4.1,7.8,6.8c2.1,1.1,3.3,3.4,1.9,3.4C262.8,357.1,259.3,355.2,255.4,353z" />
			<path class="st3" d="M364.5,355.4c-72.1-2.5-82.1-3.1-96.9-6.2c-5-1.1-11.6-3.1-14.6-4.5c-5.5-2.6-5.5-2.6-1.5-2.2
			c42.6,4.9,72.4,6.8,102,6.5c16.6-0.2,25.8,0.1,27.5,0.8c1.4,0.6,3.3,1.4,4.3,1.7c1.5,0.5,1.6,0.9,0.7,2.6
			C384.9,356.2,386,356.2,364.5,355.4z" />
			<path class="st3" d="M387,355.2c0-2.2,3.2-2.7,13.3-2.3c8.2,0.3,10.7,0.7,10.7,1.8s-2.4,1.4-12,1.4
			C392.4,356.1,387,355.7,387,355.2z" />
			<path class="st3" d="M425.3,355c-0.4-0.4-1.7-0.9-2.8-1.1c-1.1-0.2,21.8-0.7,50.9-1.1s53.1-0.6,53.2-0.4c0.2,0.1,0,0.8-0.4,1.4
			C525.4,355,426.6,356.3,425.3,355z" />
			<path class="st3"
				d="M410.5,352.1c-0.3-0.5-2.7-1-5.3-1.1c-4.7-0.1-4.7-0.1,1.8-2c3.6-1,7.4-2.1,8.5-2.4c1.1-0.2,3-0.6,4.2-0.9
			c2-0.4,2.1-0.2,1.1,2.5c-0.7,2.1-1.6,2.9-3.3,2.9c-1.3,0-2.7,0.5-3,1c-0.3,0.6-1.2,1-2,1C411.7,353.1,410.8,352.7,410.5,352.1z" />
			<path class="st3" d="M395.3,351.4c0.4-0.3,1-0.3,1.4,0c0.3,0.4,0,0.7-0.7,0.7C395.3,352.1,395,351.8,395.3,351.4z" />
			<path class="st3" d="M237.1,348.2c-5.3-3.5-11.3-11.9-16.5-22.9c-14.2-30.4-14.2-110,0-140.4c5-10.4,11.1-19.2,15.7-22.3
			c5.8-4,5.5-2.9-1.4,4.3c-7.4,7.6-9.9,11.4-12.8,19.2c-7.8,21-12.1,57-10.1,84.1c1.2,16.4,2,21.8,5.7,37.8
			c4.4,19.4,6.9,24.2,19.7,37.9c2.7,2.8,4.7,5.2,4.5,5.2C241.7,351.1,239.5,349.8,237.1,348.2z" />
			<path class="st3" d="M387.5,350.6c-0.5-0.2-2.2-0.6-3.7-0.9c-3.4-0.8-3.6-2.2-0.5-2.8c1.2-0.3,12.6-3.3,25.2-6.8
			c38.7-10.5,52.2-13.7,71.5-16.9c18.3-3.1,19.1-3.1,71.5-4.1c64.5-1.1,74.4-0.6,109.5,5.4c14.6,2.5,29,4.9,32,5.3
			c5.5,0.8,5.5,0.8,0,4.2c-11,6.8-24.5,10.1-46.6,11.6c-8.9,0.6-8.9,0.6-18.2-8c-5.1-4.7-8.7-8.5-8-8.5c5,0,31.4,8.3,39.1,12.2
			c2.2,1.1,4.1,1.7,4.4,1.4c1.4-1.4-20.8-9.5-36.2-13.1c-21-5-27.3-5.5-67-5.4c-68.7,0-82.4,1.9-143.7,19.5
			C391.8,350.8,389.7,351.3,387.5,350.6z" />
			<path class="st3" d="M422.6,348c1.2-2.4,1.3-3.3,0.4-3.9c-1.4-0.9,0.9-1.6,26.5-8.4c19.4-5.1,42.1-8.4,65.5-9.6
			c8.5-0.4,15.7-0.6,15.9-0.4c0.7,0.7-2.7,11.8-5.8,18.7c-3,6.7-3,6.7-53.6,6.7S420.9,351.1,422.6,348z" />
			<path class="st3" d="M524,350.4c0-0.2,1.2-3.2,2.6-6.6c1.5-3.4,3.4-8.9,4.4-12.2c1.6-5.8,1.8-6,5.3-6.3c4.7-0.4,4.7,0.2,0.1,14
			c-2.6,7.8-4,10.8-5.2,10.9c-0.9,0-2.9,0.2-4.4,0.3C525.2,350.6,524,350.5,524,350.4z" />
			<path class="st3" d="M304.5,346.5c-9.9-0.8-26.8-2.3-37.5-3.4c-17.1-1.8-19.7-2.4-21.8-4.3c-2.9-2.7-9.4-16.1-11.7-24.2
			c-2-6.8-3.6-9-7.1-9.9c-2.3-0.6-3.1-2-1.6-2.9c0.4-0.3,13.1,1.9,28.2,4.9c31.2,6.1,65,11.5,88.5,14c16,1.8,16,1.8,23.4,13.1
			c4.1,6.2,8.4,11.6,9.5,12C381.3,348.2,333.6,348.7,304.5,346.5z" />
			<path class="st3" d="M375.7,342.4c-9.8-13.7-15.6-28.3-19.7-50.2c-8.8-46.4,0.5-101.7,21.2-126.3c2.6-3-2-3.9,45.3,9.1
			c7.7,2.1,20.1,5.3,27.7,7.2c13.6,3.3,13.6,3.3,11.8,8.3c-9.5,26.1-13.1,59.4-9.5,88.5c1.5,11.7,7.1,35.5,10,42.4
			c1.3,3.2,1.3,3.2-16.8,7.8c-19.2,4.9-55.9,14.6-58.1,15.5c-0.8,0.3-2.6-1.5-4.4-4.3c-1.8-2.6-3.2-4.3-3.2-3.8
			c0,0.6,1.1,2.7,2.5,4.8c2.6,3.7,2.6,3.7,0,4.7c-1.5,0.6-2.8,1-3,1S377.6,345,375.7,342.4z" />
			<path class="st3"
				d="M372.8,343.4c-4.3-5-14.2-21.1-15.8-25.8c-13-37.9-13.9-79-2.5-117c3.1-10.6,4.5-13.3,11.3-23.4
			c9.1-13.6,12.6-16.1,4.7-3.5C357,195.2,349.6,233.3,352,269c1.8,26.6,8.7,51.9,18.4,67.4C375.4,344.3,376.6,347.7,372.8,343.4z" />
			<path class="st3" d="M236.4,335.9c-3.6-5.2-4.8-7.8-8.5-18.7c-3.3-9.6-3.5-11.1-1.5-11.1c2.2,0,5.3,4.5,6.1,8.7
			c0.8,4.3,8.7,21.7,10.4,22.7c1.9,1.2,1.2,2.6-1.2,2.6C240.1,340.1,238.4,338.8,236.4,335.9z" />
			<path class="st3"
				d="M691.5,328.4c-5.3-0.6-15.6-2.3-35.5-5.8c-10.7-1.8-21.6-3.6-24.2-4c-4.7-0.6-4.7-0.6-1.3-10
			c4.6-12.7,6-25,6-53c0-28.2-1.5-41.5-6.1-54.2c-3.3-9.2-3.3-9.2,1.4-9.8c2.6-0.4,16-2.6,29.7-5c13.8-2.4,28-4.6,31.6-5
			c6.6-0.6,6.6-0.6,11.3,5.2c8.6,10.8,14.1,28.7,15.7,51.3c2.7,37.7-3.1,69.4-15.6,85.3C699.8,329.4,699.6,329.4,691.5,328.4z" />
			<path class="st3" d="M702,328.5c0-0.3,1.8-2.8,4-5.5c5-5.9,11.3-22,13.4-34c3.5-20.5,2.8-59.5-1.4-74.7
			c-3.3-11.9-7.9-22.3-12.1-27.3c-2.1-2.6-3.9-5-3.9-5.3c0-0.8,46.6-0.8,55.2,0c6.6,0.7,6.6,0.7,8.2,6.3c5.2,19,7.1,36.3,7.1,67.6
			c0,30.4-1.8,47.5-7.1,66.6c-1.6,5.6-1.6,5.6-7.6,6.3C750,329.3,702,329.3,702,328.5z" />
			<path class="st3" d="M463.4,320.4c-0.9-2-3.3-10.5-5.4-18.8c-5.2-20.4-6.9-40.1-5.2-61.3c0.7-8.1,1.9-18.1,2.8-22.2
			c1.6-7.7,8.2-31.1,8.9-31.8c0.2-0.2,6.8,0.6,14.7,1.8c19.4,3.1,35.6,3.8,95.5,4.2c44.4,0.3,51.4,0.5,51.9,1.8
			c7,17.4,8.9,30.5,8.9,61s-1.9,43.6-8.9,61c-0.5,1.3-7.6,1.5-53.4,1.8c-58.2,0.3-74.7,1.1-93.2,4.1c-6.9,1.1-13.1,2.1-13.8,2.1
			C465.5,324.1,464.2,322.5,463.4,320.4z" />
			<path class="st3" d="M336,319c-21.2-2.5-55.7-8.1-84.5-13.7c-24-4.7-24-4.7-25.1-11.2c-3.5-19-3.5-59,0-78
			c1.1-6.5,1.1-6.5,25.1-11.2c39.5-7.7,103.4-17.2,105.1-15.6c0.2,0.3-0.3,2.2-1.1,4.2c-4.8,11.5-10.5,44.8-10.5,61.6
			c0,16.7,5.7,50.1,10.5,61.6c0.8,2,1.5,3.8,1.5,4C357,321.3,352.4,321,336,319z" />
			<path class="st3" d="M769.2,311.9c2.6-11.3,4.3-33.3,4.3-56.8s-1.7-45.5-4.3-56.7c-1.1-4.6-1.6-8.3-1.1-8.3c2.8,0,6,2.7,6.9,5.9
			c5.8,19.6,5.8,97.9,0,118.2c-0.9,3.2-4.1,5.9-6.9,5.9C767.6,320.1,768.1,316.4,769.2,311.9z" />
			<path class="st3" d="M221.2,298.9c-2-2.6-3.7-22.6-3.7-43.8s1.7-41.2,3.7-43.7c0.6-0.7,1.9-1.3,3.1-1.3c1.7,0,1.9,0.4,1.3,3.8
			c-1.9,10.8-2.8,23.7-2.8,41.2s0.9,30.4,2.8,41.3c0.6,3.3,0.4,3.7-1.3,3.7C223.1,300.1,221.8,299.5,221.2,298.9z" />
			<path class="st3" d="M224.5,208c-0.8-1.1,1.1-2.9,3.1-2.9s4.1-3.4,5.7-9c2.2-7.5,8.1-20.1,11.2-23.8c2.7-3.2,1.4-2.9,28-5.8
			c26.7-2.8,56.1-4.4,76.5-4.3c21.6,0.2,29.2,0.9,25.4,2.2c-1.1,0.4-5.4,5.8-9.5,12c-7.4,11.3-7.4,11.3-26.9,13.5
			c-24.3,2.8-49.9,6.8-83.5,13.3c-14.3,2.8-26.7,5.2-27.7,5.5C225.9,209,224.8,208.7,224.5,208z" />
			<path class="st3" d="M225,202.6c0-0.8,0.7-3.6,1.6-6.2c5.7-17,11-26.3,15.1-26.3c2.4,0,3.1,1.4,1.2,2.6c-1.7,1-9.6,18.4-10.4,22.7
			c-0.8,4.2-3.9,8.7-6.1,8.7C225.6,204.1,225,203.4,225,202.6z" />
			<path class="st3" d="M542.5,191.1c-42.1-0.7-43.4-0.8-62-4c-10.4-1.7-27.3-5.3-37.5-7.9c-26.9-7-61.4-16.3-62-16.8
			c-0.8-0.7,2.3-2.2,6-2.8c2.5-0.4,8,0.7,19.5,4c52.7,15.2,60.3,16.8,103.6,22c8.1,0.9,86.7,0.6,93.9-0.4
			c13.2-1.9,31.1-6.2,42.9-10.3c12-4.1,17.6-6.6,16.8-7.4c-0.3-0.3-2.2,0.3-4.4,1.4c-7.7,3.9-34.1,12.2-39,12.2
			c-0.7,0,2.9-3.8,8.1-8.5c10.9-9.9,9.2-9.5,31.1-6.6c15.9,2.1,24.3,4.7,33,9.9c6,3.7,6,3.7,0.5,4.5c-3,0.4-17.4,2.8-32,5.3
			c-26.7,4.6-46.9,6.5-66.5,6.2C589.6,191.8,566.2,191.4,542.5,191.1z" />
			<path class="st3" d="M768.2,188.4c-1.2-1-3-4.4-4.1-7.7c-1.1-3.2-3.1-7.2-4.4-9c-3.4-4.2-12.6-9.6-19.5-11.2
			c-7.9-1.9-26.7-4.1-45.7-5.3c-8.8-0.6-24-1.9-33.8-2.8c-17.8-1.7-17.8-1.7-17.5-4.8c0.3-3,0.3-3,24.7-3.3
			c22.8-0.2,24.6-0.1,26.5,1.7c3.3,2.9,15.7,6.1,31.6,8.1c19,2.4,29.2,5.6,34.8,11c4.1,4,10.7,16.2,11.9,22
			C773.4,190.6,771.5,191.1,768.2,188.4z" />
			<path class="st3" d="M514.5,184c-21.9-0.8-45.2-4.3-65-9.5c-25.8-6.9-27.9-7.5-26.5-8.4c1-0.6,0.9-1.3-0.4-3.1
			c-0.9-1.3-1.6-2.7-1.6-3.1c0-0.4,22.7-0.8,50.4-0.7c50.4,0,50.4,0,53.9,8.2c4.1,9.5,6,15.9,4.9,16.7
			C529.8,184.4,522.8,184.3,514.5,184z" />
			<path class="st3" d="M533.2,184.2c-0.5-0.3-1.5-2.4-2.1-4.6c-0.7-2.2-2.6-7.5-4.4-11.7c-1.7-4.3-2.8-8.1-2.4-8.4
			c0.3-0.3,2.3-0.2,4.3,0.3c3.7,0.8,3.9,1.1,7,9.8c4.9,14,4.9,14.2,1.4,14.7C535.4,184.6,533.7,184.5,533.2,184.2z" />
			<path class="st3" d="M542.1,184.1c-0.7-0.5-8.1-21.8-8.1-23.3c0-1.5,71.7,0.1,92.3,2.1c6.7,0.7,6.7,0.7-4.3,10.2
			c-7.8,6.8-12.1,9.7-14.7,10.3C603.2,184.3,543.2,184.9,542.1,184.1z" />
			<path class="st3" d="M613,182.7c0-0.4,20.3-18.1,21.9-19c3.4-2.1-0.1,1.7-8.9,9.6C618,180.4,613,184.1,613,182.7z" />
			<path class="st3" d="M730.5,180.1c-31-0.5-31-0.5-34.5-3.1c-9.6-7.2-22.9-11.2-43.5-13c-8.2-0.6-15.3-1.5-15.7-1.8s0-1.5,0.7-2.5
			c1.4-1.8,2.1-1.9,17.2-0.7c30.5,2.2,62.9,5.1,70.7,6.2c11.8,1.6,28.7,7.4,33.3,11.4c2.1,1.8,3.6,3.5,3.3,3.7
			C761.7,180.4,747.6,180.4,730.5,180.1z" />
			<path class="st3" d="M758.4,175.2c-2.1-1.9-7-4.1-14-6.4c-16.1-5.2-10.6-4.5-76.6-9.9c-15.3-1.2-27.8-2.5-27.8-2.8
			c0-0.4,0.6-1.5,1.4-2.5c1.3-1.8,1.9-1.8,24.7,0.3c12.9,1.2,27.7,2.4,32.9,2.7c25.9,1.6,42,4.4,50.3,8.7
			c5.4,2.9,12.7,9.6,12.7,11.8C762,178.5,761.9,178.4,758.4,175.2z" />
			<path class="st3" d="M244,165.4c4.4-3.9,17.7-12.3,19.3-12.3c1.8,0-0.1,2.5-3.4,4.3c-1.9,1.1-5.9,4.1-9,6.8
			c-3.9,3.4-6.6,4.9-8.5,4.9C239.7,169.1,239.7,169.1,244,165.4z" />
			<path class="st3" d="M253,165.5c12.5-5.9,36.5-8.4,99-10.4c30.1-0.9,32.6-0.9,33.8,0.7c1.7,2.4,1.5,3.3-0.9,3.3
			c-1.1,0-3,0.5-4.2,1.2c-1.6,0.9-9.2,1.2-28.2,1c-28.8-0.3-63.8,1.9-101,6.3C247.5,168.1,247.5,168.1,253,165.5z" />
			<path class="st3" d="M410,162.1c-8.6-2.6-9.1-2.9-5.2-2.9c2.3-0.1,5.1-0.7,6.2-1.3c1.5-1,2.2-1,3.2,0c0.6,0.6,2.2,1.2,3.3,1.2
			c1.4,0,2.6,1,3.3,2.5C422.8,166,423,166,410,162.1z" />
			<path class="st3"
				d="M253.9,162.8c2.5-3.1,11.1-6.6,20.1-8.2c5.2-0.9,11.8-2.1,14.6-2.6c2.9-0.6,7.6-2.5,10.6-4.3
			c5.5-3.3,5.5-3.3,24.3-3.9c17.5-0.5,18.9-0.4,22.6,1.5c3,1.5,7,2.2,17.2,2.9c7.2,0.4,14.9,0.8,17,0.9c2.4,0,4,0.5,4.4,1.5
			c0.3,0.9,0.3,1.8,0.1,2.1c-0.3,0.2-16,0.9-34.9,1.4c-54.2,1.6-85.7,4.6-93.6,8.8C253.4,164.5,252.5,164.4,253.9,162.8z" />
			<path class="st3" d="M612,161c-8-0.4-29.9-1.2-48.7-1.8c-18.8-0.5-34.7-1.2-35.3-1.6c-0.5-0.3-1-1.2-1-1.8c0-1.4,3.3-1.3,65.5,0.3
			c22,0.6,41,1.4,42.2,1.7c1.9,0.4,2.1,0.8,1.2,2.4C634.8,162.3,635.5,162.3,612,161z" />
			<path class="st3" d="M395.3,158.4c0.4-0.3,1-0.3,1.4,0c0.3,0.4,0,0.7-0.7,0.7C395.3,159.1,395,158.8,395.3,158.4z" />
			<path class="st3" d="M388.3,157c-0.7-0.7-1.3-1.7-1.3-2.1c0-0.4,5.4-0.8,12-0.8c10,0,12,0.3,12,1.5s-1.5,1.5-7.9,1.5
			c-4.3,0-9.1,0.3-10.7,0.6C390.7,158,389,157.7,388.3,157z" />
			<path class="st3" d="M427.5,157c-3.8-0.3-6.1-0.6-4.9-0.7c1.1-0.1,2.4-0.5,2.8-0.9s23.1-0.7,50.4-0.5c42.5,0.2,49.7,0.4,50.5,1.7
			c0.7,1.3-5,1.4-45.5,1.2C455.3,157.7,431.4,157.3,427.5,157z" />
			<path class="st3" d="M414,155.6c-1-1.2-1-1.9-0.2-2.7c0.7-0.7,1.2-1.9,1.2-2.7c0-2.8,7-8.1,10.6-8.1c1.9,0,3.4,0.2,3.4,0.5
			c0,2-6.3,12.5-7.5,12.5c-0.8,0-1.5,0.5-1.5,1C420,157.7,415.4,157.3,414,155.6z" />
			<path class="st3" d="M624.5,155.9c-7.1-0.3-27.6-0.9-45.5-1.2c-17.9-0.4-37.1-0.9-42.7-1.2c-9.1-0.5-10.2-0.8-10.7-2.6
			c-0.5-2.1-0.5-2.1,40.7-1.5c49.8,0.9,74.7,1.8,74.7,2.7c0,0.4-0.8,1.6-1.7,2.6C637.7,156.4,636.4,156.5,624.5,155.9z" />
			<path class="st3" d="M265,153.8c0-2.3,20.5-8.8,29.8-9.5c3.9-0.2,7.2-0.2,7.2,0.1c0,0.4-2,1.8-4.5,3.2c-3.1,1.9-7.8,3.2-15.7,4.5
			c-6.2,1-12.5,2.1-14,2.5C265.6,155.2,265,155,265,153.8z" />
			<path class="st3" d="M449.8,153.4c-12.6-0.2-22.8-0.6-22.8-0.9s0.5-1.4,1-2.5c1-1.8,2.6-1.9,48.4-1.9c47.4,0,47.4,0,47.9,2.2
			c0.4,1.2,0.5,2.3,0.4,2.4C524.2,153.2,470,153.7,449.8,153.4z" />
			<path class="st3" d="M386,151c0-2,0.5-2,14-1.8c13.2,0.2,13.9,0.3,12.9,2c-0.9,1.7-2.3,1.9-13.9,1.9C386.5,153.1,386,153,386,151z
			" />
			<path class="st3" d="M602.5,149.1c-11.5-0.4-33.7-0.8-49.2-0.9c-27.1-0.1-28.3-0.2-29.3-2.1c-1.1-2-0.8-2,58.5-2
			c59.5,0,59.5,0,59.5,3C642,150.5,644.6,150.4,602.5,149.1z" />
			<path class="st3" d="M363.5,147.1c-11.6-0.7-17.2-1.7-18.1-3.1c-0.3-0.5,8.2-0.9,19-0.9c19.6,0,19.6,0,19.6,2.5
			C384,148.4,384.7,148.4,363.5,147.1z" />
			<path class="st3" d="M385.7,147.4c-0.4-0.3-0.7-1.2-0.7-2c0-1,3.4-1.3,16.2-1.3c16,0,16.1,0,14.3,2c-1.6,1.8-3.1,2-15.5,2
			C392.5,148.1,386,147.8,385.7,147.4z" />
			<path class="st3" d="M430.2,145.9c0.4-1,10.7-1.4,46-1.6c39.9-0.2,45.7,0,46.2,1.3s-4.9,1.5-46,1.5
			C439.6,147.1,429.9,146.8,430.2,145.9z" />
			<path class="st3" d="M542.9,326.6c-0.7,0.5-8.1,21.8-8.1,23.3s71.7-0.1,92.3-2.1c6.7-0.7,6.7-0.7-4.3-10.2
			c-7.8-6.8-12.1-9.7-14.7-10.3C604,326.4,544,325.8,542.9,326.6z" />
			<path class="st3"
				d="M613.2,328c0,0.4,20.3,18.1,21.9,19c3.4,2.1-0.1-1.7-8.9-9.6C618.2,330.3,613.2,326.6,613.2,328z" />
			<path class="st3" d="M612,349.7c-8,0.4-29.9,1.2-48.7,1.8c-18.8,0.5-34.7,1.2-35.3,1.6c-0.5,0.3-1,1.2-1,1.8
			c0,1.4,3.3,1.3,65.5-0.3c22-0.6,41-1.4,42.2-1.7c1.9-0.4,2.1-0.8,1.2-2.4C634.8,348.4,635.5,348.4,612,349.7z" />
			<path class="st3" d="M624.5,354.8c-7.1,0.3-27.6,0.9-45.5,1.2c-17.9,0.4-37.1,0.9-42.7,1.2c-9.1,0.5-10.2,0.8-10.7,2.6
			c-0.5,2.1-0.5,2.1,40.7,1.5c49.8-0.9,74.7-1.8,74.7-2.7c0-0.4-0.8-1.6-1.7-2.6C637.7,354.3,636.4,354.2,624.5,354.8z" />
		</g>
		<g id="rear" class="st2">
			<path class="st1" d="M715.9,356.3c0.5-1.8,1.2-3.4,1.6-3.6c0.4-0.3,5.1-0.8,10.4-1.2c9.6-0.7,9.8-0.7,10.6,1.6
			c2.4,6.3,2.2,7.3-1.4,9.7c-2.9,1.8-4.9,2.2-11.2,2.2c-4.2,0-8.2-0.4-8.8-0.8C715.5,363.1,715,359.9,715.9,356.3z" />
			<path class="st1" d="M727.6,383.7c1.8-7.1,3.1-8.7,6.6-8.6c1.8,0,1.8,0.1-0.3,0.9c-3.2,1.3-2.8,5,1.2,9.6
			c3.3,3.9,3.4,4.2,2.9,10.5c-0.3,3.5-1.1,6.7-1.7,7.1c-0.6,0.4-3.2,0.8-5.9,0.8c-4.7,0-4.7,0-4.6-6.7
			C725.8,393.5,726.6,387.4,727.6,383.7z" />
			<path class="st1" d="M726.4,407.9c0.5-2.1,9.9-2.9,31.8-2.8c8.8,0.1,47.9,0.3,87,0.5c39,0.2,76.1,0.6,82.2,1
			c10.5,0.6,11.3,0.7,11.3,2.6c0,1.7-0.4,1.9-2.3,1.3c-3.5-1.2-197.2-2.6-204.1-1.5c-3.3,0.5-6,0.8-6.1,0.7
			C726.1,409.6,726.2,408.8,726.4,407.9z" />
			<path class="st1" d="M729.4,410.5c3.8-1,191.9-0.6,201.1,0.5c4,0.4,7.6,1,7.8,1.3c0.7,0.7-1.2,16.1-2.6,21
			c-1.3,4.3-1.7,4.4-9.4,1.7c-5.5-1.8-9.6-2-93.4-2.5c-85.4-0.5-87.9-0.4-94.2,1.5c-3.6,1.1-7,2-7.6,2c-1.6,0-4.4-11.9-4.4-18.8
			C726.7,411.5,726.8,411.2,729.4,410.5z" />
			<path class="st1" d="M729.1,436.5c3.8,11.8,7.6,17.5,11.7,17.5c1.1,0,3.7-1.1,5.7-2.5s4.1-2.5,4.6-2.5c1,0,0.1,30.4-0.9,32.1
			c-0.8,1.2-19.2,1.1-21.6-0.1c-1.8-1-1.9-2.3-1.8-26.3C726.9,429.5,726.9,429.5,729.1,436.5z" />
			<path class="st1" d="M733.3,368.7c3.1-5.9,5.6-7.2,12.7-6.3c5.5,0.7,5.5,0.7,3.3,2.9c-1.2,1.2-3,3.4-4.1,4.9
			c-1.6,2.3-3.1,2.9-8.3,3.6c-3.4,0.5-6.2,0.6-6.2,0.3C730.8,373.8,731.9,371.3,733.3,368.7z" />
			<path class="st1" d="M738,435.8c6.2-2,9.2-2.3,21.2-2.2c7.7,0,46.4,0.1,85.9,0.2c71.9,0.2,71.9,0.2,80.3,2.8
			c7.7,2.3,8.3,2.7,7.7,4.7c-2,6.4-6.6,12.7-9.3,12.7c-0.9,0-3.4-1.2-5.6-2.7c-3.4-2.4-5.2-2.8-12.5-3.1c-8.2-0.4-8.6-0.5-11.3-3.7
			c-5.5-6.7-14.6-6.4-18.5,0.5c-1.7,3-1.8,3-11.2,3.2c-1.2,0-1.4,0.1-1.9,0.1c-2.3,0.2-5.5,0.1-5.5,0.1c-10.8-0.3-16.2-0.5-16.7-0.5
			c-13.1-0.9-22.4-0.4-40.9-0.4c-49.5,0-49.5,0-53.5,2.8c-2.2,1.5-4.7,2.7-5.7,2.7c-2.2,0-6.3-5.4-8.2-10.7
			C730.8,438.2,730.8,438.2,738,435.8z" />
			<path class="st1" d="M734.6,377c1.1-0.5,3.2-1,4.7-1c2.4,0,2.6,0.3,2.1,2.8c-0.9,4.3-2.6,8.2-3.6,8.2c-1.1,0-5.1-6.2-5.1-7.8
			C732.7,378.6,733.6,377.6,734.6,377z" />
			<path class="st1" d="M739.4,392.3c0.5-2.7,0.2-2.7,4.9-0.6c2.9,1.2,6.6,1.7,14.2,1.6c10.2,0,10.2,0,11.3,4.1
			c0.6,2.3,1.3,4.4,1.6,4.9c0.2,0.4-7,0.7-16.1,0.7c-16.6,0-16.6,0-16.5-4.2C738.9,396.4,739.2,393.5,739.4,392.3z" />
			<path class="st1" d="M741.5,382.3c1-3.5,2-5.3,3-5.3c0.9,0,5.8,0.8,11,1.7c10.2,1.8,10.3,1.9,11.7,9.6c0.7,3.4,0.7,3.4-5.2,4.1
			c-7.7,0.9-22.6-2-22.2-4.3C739.9,387.8,740.6,385.1,741.5,382.3z" />
			<path class="st1"
				d="M741.7,374c0.5,0,1,0.5,1,1.1c0,0.5-0.5,0.7-1,0.4c-0.6-0.3-1-0.8-1-1.1C740.7,374.2,741.1,374,741.7,374z" />
			<path class="st1" d="M746.2,349.3c4.5-10.9,10.9-23,15.8-30.2c3.7-5.4,4.9-3.9,1.3,1.6c-1.4,2.1-5.7,11.2-9.6,20.3
			c-3.9,9.1-7.9,17.1-8.8,17.8c-2.3,1.7-0.4,1.5,6.3-0.8c7.1-2.4,7.5-2.5,7.5-0.2c0,3.5-11.2,5.3-15.6,2.4
			C742.4,359.7,743.5,356,746.2,349.3z" />
			<path class="st1" d="M744.7,373.5c0.5-0.3,4.7-0.9,9.3-1.2c8.4-0.6,8.4-0.6,9.6,2.7c0.6,1.8,0.9,3.5,0.7,3.7
			c-0.6,0.6-20.6-3.1-20.6-3.9C743.7,374.4,744.1,373.8,744.7,373.5z" />
			<path class="st1" d="M750.6,365.7c3.7-3.3,7.7-5.4,8.7-4.5c0.2,0.3,1,2.6,1.8,5.1c1.4,4.7,1.4,4.7-6.5,4.7c-4.3,0-7.9-0.4-7.9-0.9
			S748.5,367.7,750.6,365.7z" />
			<path class="st1" d="M755,340.4c4-8.8,8.2-17.6,9.4-19.6c1.3-1.9,2.3-4.5,2.3-5.6c0-1.8,2.5-4.2,4.3-4.2c1.6,0,1.4,3.7-0.3,6.5
			c-2.5,4.1-8.7,20.9-10.9,29.9c-1.7,6.9-1.7,6.9-6.9,8.7c-2.9,1-5.2,1.5-5.1,1.1C747.8,356.8,751.1,349.3,755,340.4z" />
			<path class="st1"
				d="M759.5,357.6c-0.2-1.4,1.2-2.9,1.9-3c2.6-0.3,7.5-0.9,13-1.3c22.5-1.9,113.8-0.5,129.6,1.7
			c1.4,0.2,2.4,1.6,1.9,3c0,0,0,0,0,0.1c-0.1,0.6-0.3,1-0.6,1.3c-1.2,1.3-14.6,0.5-14.6,0.5c-3-0.2-3.7-0.2-8.3-0.5
			c-1.4-0.1-6.9-0.5-6.9-0.7l0,0c0-0.6-107.9,0.1-112.8,0.8c-0.2,0-1.2,0.2-2.1-0.3C760.1,358.9,759.6,358.3,759.5,357.6z" />
			<path class="st1" d="M760.8,347c1.5-5.4,8.9-26.4,9.9-28c0.8-1.3,8.9-1.6,52.7-2c12.3-0.1,23.5-1.3,38.9-0.5
			c3.8,0.2,15.4,0.9,15.4,1.1h-0.3c0,0.1,2.3,0.1,7,0.2c8.4,0.2,9.4,0.4,10.7,2.5c1.8,2.8,9.3,24.9,10.2,30.1
			c0.7,3.8,0.6,3.9-1.7,3.3c-1.3-0.4-11-1.2-21.4-1.8c-19.5-1.1-110-0.6-118.3,0.6C759.3,353.3,759.2,353.1,760.8,347z" />
			<path class="st1" d="M793.1,371.8c39.6-0.3,85.9,0.1,98.3,0.8c10.1,0.6,10.1,0.6,8.9,4.2c-1.1,3.1-2.1,3.9-7.7,6.2
			c-8.3,3.3-8.8,5.2-2.1,8.3c4.9,2.3,4.9,2.3,3.6,6.9c-0.8,2.5-2.1,5.1-2.9,5.8c-2.4,2-116,1-117.9-1.1c-1.2-1.4-4.1-9.8-3.4-10.3
			c0.2-0.2,2.1-1,4.3-1.8c8-3.1,7.1-6.5-2.5-9.4c-5.5-1.6-5.9-2-6.8-5.6C763.9,372,763.9,372,793.1,371.8z M790.7,385.3
			c1.1,3.5,2.7,7,3.5,7.7c2.1,1.7,74.8,1.8,76.8,0.1c1.9-1.5,6-14.7,5.3-16.9c-0.6-1.8-3-1.9-42.8-2.5c-30.5-0.5-42.5-0.4-43.4,0.4
			C788.2,375.6,788.3,377.6,790.7,385.3z" />
			<path class="st1" d="M790.5,375.5c0.4-0.7,15.3-0.9,42.4-0.7c34.6,0.3,41.7,0.6,42.2,1.8c0.5,1.4-2.6,12.7-4.2,15.2
			c-1.2,1.8-73.7,1.9-75.8,0.1c-0.8-0.6-2.3-4.1-3.4-7.6C789.5,377,789.4,376.9,790.5,375.5z" />
			<path class="st1" d="M767.2,381c1.6,0,11.5,4.3,11.5,5c0,1.3-3.9,3.7-7.1,4.5c-2.4,0.6-2.7,0.3-3.8-3.9
			C766.6,381.6,766.5,381,767.2,381z" />
			<path class="st1" d="M877.8,444.1c3.1-3.3,6.7-4.4,10.3-3.1c3.6,1.2,6.6,3.8,6.6,5.7c0,2.2-2.6,1.4-3.8-1.2
			c-2.1-4.6-10.5-4.6-12.2,0c-0.5,1.4-1.4,2.5-2,2.5C875.1,448,875.5,446.6,877.8,444.1z" />
			<path class="st1" d="M880.9,444.2c1.9-1.9,6.3-1.4,8.3,0.8c1.7,1.9,1.7,2.1,0,4c-3.1,3.5-9.5,2.1-9.5-2
			C879.7,446.1,880.2,444.9,880.9,444.2z" />
			<path class="st1" d="M888.2,386c0.8-0.6,3.5-1.8,6.1-2.6c4.3-1.3,4.6-1.2,3.9,0.4c-0.3,0.9-0.9,2.9-1.2,4.5
			c-0.7,3.7-1.6,4-5.6,2.3C887.2,388.9,886.3,387.6,888.2,386z" />
			<path class="st1" d="M894.7,399.5c1.7-5,1.7-5,12.1-5.1c6.9,0,11.8-0.6,14.6-1.6c4.3-1.6,4.3-1.6,4.3,4.8c0,6.3,0,6.3-16.5,6.6
			c-9.1,0.2-16.4,0.3-16.4,0.3C892.9,404.5,893.7,402.3,894.7,399.5z" />
			<path class="st1" d="M895.2,312.4c2-0.8,4.7,1.5,4,3.4c-0.3,0.8,0.6,3.2,1.9,5.3c2,3,16.6,35.9,16.6,37.4c0,0.6-8.2-2.4-9.6-3.6
			c-0.7-0.5-1.6-2.8-1.9-5.1c-1-5.7-9-29.3-10.9-32C893.3,315,893.3,313.1,895.2,312.4z" />
			<path class="st1" d="M898.4,386.8c0.8-2.7,2.1-4.9,3.1-5.2c6.1-1.8,19.4-3.8,20.2-3c0.4,0.5,1.5,3.2,2.3,6.1
			c1.6,5.2,1.6,5.2-3.1,7c-5,1.9-21.6,2.4-23.1,0.7C897.4,391.9,897.6,389.4,898.4,386.8z" />
			<path class="st1" d="M903.1,318.5c3.2,4,13.8,25,17.5,34.8c3.2,8.6,3.7,7.6-4.7,9.3c-3.5,0.7-9.2-1.7-9.2-3.8c0-2.3,1.7-2.3,8,0.2
			c5.8,2.3,8.1,2.6,5.8,0.8c-0.9-0.7-4.6-8.5-8.3-17.3c-3.7-8.8-7.8-17.9-9.1-20.2C900,316.9,900,314.6,903.1,318.5z" />
			<path class="st1" d="M901.6,376c0.7-2.4,1.1-2.5,9.3-2.8c7.6-0.2,8.8,0,9.7,1.6c0.9,1.7,0.2,2-8.7,3.6
			C899.2,380.6,900.3,380.8,901.6,376z" />
			<path class="st1" d="M904.4,366.8c1-3.7,1.8-4.8,3.4-4.8c2.2,0,11.8,8.4,10.8,9.5c-0.4,0.3-4,0.5-8.1,0.3
			C903,371.5,903,371.5,904.4,366.8z" />
			<path class="st1" d="M913.8,450c0.5,0,2.7,1.2,4.9,2.6c7,4.7,11,1.4,16-12.9c2.9-8.2,2.9-8.2,2.7,17.3c-0.2,25.5-0.2,25.5-11,26
			c-6.7,0.3-11.2,0.1-11.7-0.5C913.6,481,912.6,450,913.8,450z" />
			<path class="st1" d="M916.4,363.6c2.4-1,9.3-0.7,11.4,0.4c1.7,1,7.5,10.8,6.7,11.4c-0.2,0.2-3.1-0.2-6.4-0.8
			c-5.7-1-6.5-1.5-9.7-5.8C915.5,365.1,915.1,364,916.4,363.6z" />
			<path class="st1"
				d="M923.7,375c0.5,0,1,0.5,1,1c0,0.6-0.5,1-1,1c-0.6,0-1-0.4-1-1C922.7,375.5,923.1,375,923.7,375z" />
			<path class="st1" d="M925.1,377.4c2.3-0.9,7.1,1,7.4,3c0.4,1.7-4.2,8.6-5.7,8.6c-0.5,0-1.1-1.3-1.4-2.9c-0.3-1.6-0.9-4-1.3-5.5
			C923.7,378.7,923.9,377.9,925.1,377.4z" />
			<path class="st1" d="M926.2,356.5c1.2-4,1.2-4,10.6-3.7c11.2,0.4,12.9,1.4,12.9,7.7c0,5.2-0.6,5.5-10.5,5.5
			c-5.9,0-8.1-0.4-10.9-2.2c-1.9-1.3-3.5-2.5-3.5-2.8C924.9,360.7,925.5,358.7,926.2,356.5z" />
			<path class="st1" d="M930.2,386.8c4.1-4.4,4.6-8.4,1.2-9.9c-2.1-0.9-2.1-0.9,0.3-0.4c1.4,0.2,2.8,0.5,3.1,0.5
			c1.4,0,4.1,13,4.3,20.1c0.1,7.4,0.1,7.4-5.9,7.4s-6,0-6.2-7C926.7,390.7,926.8,390.4,930.2,386.8z" />
			<path class="st4" d="M870.3,318.1" />
			<path class="st1" d="M879.6,360c5.2,0.3,5.8,0.4,10,0.8c5.1,0.4,9.7,0.8,12.1,1.2c1.3,0.2,2.2,1.3,2,2.5c-0.2,0.9-0.4,2-0.8,3.1
			c-1.4,4.5-1.4,4.5-8,3.9c-3.7-0.4-34.8-0.7-69.1-0.8c-62.5-0.1-62.5-0.1-63.8-4.3c-0.7-2.3-1.1-4.3-0.8-4.6
			c2.9-2.7,37.7-1.3,67.3-1.9C830.1,359.8,865.9,359.1,879.6,360z" />
			<path class="st0" d="M856.7,449" />
			<path class="st1" d="M862.3,314.9c-7.8-1.1-18.7,0-38,0c-50.8,0-50.8,0-50.8-2.7c0-2.1,0.6-2.7,3-3.2c4-0.8,81.6-0.8,101.1,0.1
			c15.4,0.6,15.4,0.6,15,3.4c-0.4,2.8-0.4,2.8-9,3.2c-3.7,0.2-2.3,0.2-6,0.2C872.2,316,869.5,316,862.3,314.9z" />
		</g>
	</g>
</svg>