<svg width="32" height="32" viewBox="0 0 32 32" fill="none" xmlns="http://www.w3.org/2000/svg">
<path fill-rule="evenodd" clip-rule="evenodd" d="M2.66666 16C2.66666 8.636 8.636 2.66667 16 2.66667C23.364 2.66667 29.3333 8.636 29.3333 16C29.3333 23.364 23.364 29.3333 16 29.3333C8.636 29.3333 2.66666 23.364 2.66666 16ZM26.6667 16C26.6667 10.1187 21.8813 5.33333 16 5.33333C10.1187 5.33333 5.33333 10.1187 5.33333 16C5.33333 21.8813 10.1187 26.6667 16 26.6667C21.8813 26.6667 26.6667 21.8813 26.6667 16ZM21.3333 16L13.3333 22V10L21.3333 16Z" fill="white"/>
</svg>
