<svg id="Layer_1" enable-background="new 0 0 512.044 512.044" height="512" viewBox="0 0 512.044 512.044" width="512" xmlns="http://www.w3.org/2000/svg"><path d="m496.33 304.692-150.15 157.15c-27.01 27.01-63.64 42.18-101.83 42.18h-28.35c-72.896 0-132-59.098-132-132 0-35.13-9.25-69.63-26.81-100.05l-44.9-77.77c-6.874-11.904-5.248-26.481 3.17-36.53 14.129-16.905 41.052-14.859 52.26 4.53 65.343 113.181-10.324-17.886 63.94 110.75-51.165-190.944-50.943-185.344-49.14-195.7 0-1.038 1.305-6.21 3.11-9.82 14.736-30.269 58.656-25.525 67.2 6.33 2.667 9.956 44.598 166.459 47.17 176.06 0-218.052-.158-207.027.29-210.38 2.494-18.688 18.798-31.37 33.86-31.37 20.857-1.018 37.85 15.559 37.85 35.95v212c60.187-209.94 55.193-195.219 59.64-202 9.364-14.838 30.545-21.065 47.43-11.6 13.39 6.722 21.854 23.982 17.35 40.82l-52.42 195.62v42.53c0 14.26 17.23 21.4 27.31 11.32 48.396-56.028 44.072-51.165 46.39-53.33 25.043-23.209 59.097-26.622 70.36-20.99 17.798 7.652 23.2 31.37 8.27 46.3z" fill="#f9cfac"/><path d="m503.06 274.012-171.62 178.13c-21.57 18.97-48.26 31.02-76.6 34.68-89.326 11.613-154.84-54.566-154.84-130.8 0-35.13-9.25-69.63-26.81-100.05-60.57-103.012-57.054-96.973-57.73-98.3 7.873-9.419 20.689-13.714 33.04-10.32 6.937 1.904 10.911 5.071 15.42 9.58 33.984 56.921 67.84 116.02 67.74 116.02 8.577 0 14.82-8.136 12.6-16.421-47.77-178.274-45.518-167.194-45.19-174.889.275-11.258 6.855-23.247 17.59-29.51 4.504-2.645 9.5-4.026 9.91-4.03 12.36 3.01 22.73 12.51 26.26 25.66 4.702 17.551 42.087 157.088 47.17 176.06 0-225.792-.241-207.448.56-212.17.971-5.405 3.243-10.492 5.85-14.14 3.096-4.517 7.259-7.81 7.36-7.81 24.406-18.823 58.23-.974 58.23 28.32v212c58.389-203.668 55.258-192.954 55.8-194.36 8.526-24.295 41.074-32.801 60.43-12.01 1.231 1.393 5.522-17.036-60.23 232.21v42.53c0 12.236 13.656 24.05 29.43 17.91 10.597-4.128 16.536-12.665 24.66-22.07 36.553-42.309 32.184-37.333 34.723-40.003 10.643-10.294 24.525-18.298 40.437-21.977 6.702-1.534 17.297-2.891 23.78-1.9 8.803 1.356 16.059 6.676 20.17 13.8 1.137 1.904 1.812 3.76 1.86 3.86z" fill="#ffe4cc"/><path d="m109.025 434.76c-2.231-3.812-7.132-5.095-10.946-2.862-3.813 2.232-5.094 7.133-2.862 10.946 2.203 3.759 3.92 7.249 8.912 7.249 6.215 0 10.169-6.934 6.732-12.31-.542-.848-1.125-1.808-1.836-3.023z"/><path d="m475.72 248.022c-25.171 0-48.833 9.8-66.627 27.593-.374.376-13.539 15.989-43.646 51.641-5.022 4.732-13.447 1.202-13.447-5.863v-41.478l52.148-194.605c7.442-27.799-13.537-55.388-42.518-55.388-19.847 0-37.299 13.381-42.468 32.547l-39.162 136.613v-155.06c0-24.262-19.738-44-44-44-24.083 0-44 19.459-44 44v145.027l-31.443-117.359c-6.295-23.472-30.394-37.408-53.882-31.106-23.327 6.234-37.469 30.304-31.122 53.889l32.651 121.852-33.557-58.125c-11.035-19.102-35.549-25.666-54.638-14.636-18.773 10.842-25.862 35.209-14.647 54.638l44.9 77.77c16.838 29.169 25.738 62.383 25.738 96.05 0 13.496 1.92 26.851 5.706 39.692 1.251 4.238 5.705 6.664 9.937 5.411 4.238-1.25 6.66-5.698 5.411-9.937-3.353-11.371-5.054-23.203-5.054-35.166 0-36.471-9.642-72.45-27.882-104.05l-44.9-77.771c-2.105-3.646-3.218-7.782-3.218-11.96 0-24.715 32.699-32.968 44.791-12.04l63.941 110.75c4.647 8.049 17.066 2.927 14.655-6.07-52.834-197.174-49.347-182.574-49.347-187.829 0-21.315 23.262-35.041 42.014-24.219 6.478 3.74 11.111 9.777 13.049 16.999l47.17 176.06c2.409 8.993 15.728 7.229 15.728-2.07v-205.8c0-7.477 2.912-14.511 8.192-19.799 17.501-17.476 47.807-5.229 47.807 19.799v212c0 9.234 13.152 11.066 15.69 2.204l54.87-191.41c3.905-13.517 15.333-20.894 27.069-20.894 18.434 0 31.803 17.541 27.063 35.249-56.154 209.556-52.692 196.052-52.692 197.691v42.53c0 22.803 28.484 31.866 41.422 16.481l43.218-51.177c14.745-14.625 34.292-22.675 55.08-22.675 16.771 0 27.971 20.132 13.808 35.163l-149.076 157.073c-25.681 25.645-59.806 39.765-96.102 39.765h-28.35c-32.469 0-63.172-12.471-86.452-35.114-3.169-3.082-8.233-3.01-11.313.156-3.081 3.167-3.011 8.232.156 11.313 26.285 25.566 60.949 39.645 97.608 39.645h28.35c43.317 0 83.323-18.874 107.633-44.673l149.084-157.079c23.642-23.772 6.287-62.248-25.346-62.248z"/><path d="m224 455.022c0-55.916 41.726-103.641 97.057-111.011 4.379-.583 7.457-4.606 6.873-8.986-.582-4.379-4.593-7.449-8.986-6.873-63.248 8.425-110.944 62.967-110.944 126.87 0 4.418 3.582 8 8 8s8-3.582 8-8z"/></svg>