<svg id="Layer_1" enable-background="new 0 0 512 512" height="512" viewBox="0 0 512 512" width="512" xmlns="http://www.w3.org/2000/svg"><path d="m478.343 293.6v39.321c0 94.484-76.595 171.079-171.079 171.079-111.168 0-112.539.77-131.261-2.4-80.8-13.64-142.34-83.95-142.34-168.63v-205.25c0-23.606 19.13-42.75 42.75-42.75s42.76 19.14 42.76 42.75v-34.2c0-28.317 22.95-51.31 51.31-51.31 28.34 0 51.31 22.97 51.31 51.31v-34.21c0-28.339 22.969-51.31 51.31-51.31 28.34 0 51.31 22.97 51.31 51.31 0-14.17 5.74-27 15.03-36.28 32.522-32.557 87.59-8.604 87.59 37.234 0 126.93.028 119.423-.059 121.209-.005.1-2.769-4.907 36.149 58.337 9.95 16.18 15.22 34.8 15.22 53.79z" fill="#f9cfac"/><g fill="#ffe4cc"><path d="m324.412 59.31v78.07h-76.62v-122.72c33.897-19.24 76.62 5.152 76.62 44.65z"/><path d="m324.412 59.31v78.07h-76.62v-122.72c33.897-19.24 76.62 5.152 76.62 44.65z"/><path d="m221.792 93.52v43.86h-8.55c-27.084 0-51.998 21.852-50.06 55.43 1.28 23.11 11.05 44 26.24 59.59-1.77.7-3.59 1.3-5.45 1.8-21.78-5.93-37.8-25.85-37.8-49.51v-156.36c33.786-18.225 75.62 6.12 75.62 45.19z"/><path d="m221.792 93.52v43.86h-8.55c-27.084 0-51.998 21.852-50.06 55.43 1.28 23.11 11.05 44 26.24 59.59-1.77.7-3.59 1.3-5.45 1.8-21.78-5.93-37.8-25.85-37.8-49.51v-156.36c33.786-18.225 75.62 6.12 75.62 45.19z"/><path d="m119.172 127.72v102.62c0 19.64-13.23 36.17-31.26 41.19-18.03-5.02-31.25-21.55-31.25-41.19v-140.53c27.975-14.698 62.51 5.51 62.51 37.91z"/><path d="m119.172 127.72v102.62c0 19.64-13.23 36.17-31.26 41.19-18.03-5.02-31.25-21.55-31.25-41.19v-140.53c27.975-14.698 62.51 5.51 62.51 37.91z"/><path d="m352.412 13.59v123.79c21.241 0 47.575-2.645 74.62 20.75 0-14.598 0-89.907 0-98.82 0-38.633-40.954-62.962-74.62-45.72z"/><path d="m478.343 323.97c0 54.76-25.74 103.51-65.77 134.81-23.82 12.59-50.99 19.72-79.81 19.72h-102.57c-94.088 0-171.03-76.204-171.03-171.03v-20.96c27.123 8.345 56.324-3.931 69.43-29.18 11.5 9.18 26.06 14.67 41.89 14.67 14.532 0 23.354-4.135 32.8-7.88 27.349 18.901 51.186 16.43 76.09 16.43-35.35 26.39-59.56 66.9-64.21 113.1-.19 1.89-.35 11.8-.47 13.71-.266 4.794 3.476 8.43 7.86 8.51 4.26.07 7.84-3.21 8.11-7.46 4.91-75.85 67.97-143.86 145.06-143.86h-119.72c-21.26 0-40.5-8.61-54.43-22.54-16.916-16.916-24.23-40.929-22.35-58.01 1.79-17.21 16.34-30.62 34.02-30.62h158.46c23.76 0 45.82 12.32 58.27 32.56 49.056 79.718 48.37 69.696 48.37 138.03z"/></g><path d="m478.342 302.69c-4.418 0-8 3.582-8 8v2.62c0 4.418 3.582 8 8 8s8-3.582 8-8v-2.62c0-4.419-3.582-8-8-8z"/><path d="m478.515 334.823c-4.414-.249-8.19 3.123-8.44 7.534-4.888 86.155-76.382 153.643-162.763 153.643h-102.619c-89.896 0-163.03-73.135-163.03-163.03v-65.682c27.973 26.33 74.032 13.173 83.837-24.012 19.818 23.071 53.124 27.166 77.744 10.837 14.505 11.525 32.835 18.436 52.759 18.436h51.545c-50.46 25.142-85.205 77.279-85.205 137.38 0 4.418 3.582 8 8 8s8-3.582 8-8c0-75.752 61.628-137.38 137.38-137.38 4.418 0 8-3.582 8-8s-3.582-8-8-8h-119.72c-38.03 0-68.97-30.936-68.97-68.96 0-14.485 11.722-26.21 26.21-26.21h158.46c18.255 0 36.453 8.354 48.872 24.912 2.026 2.78-.276-.807 35.734 57.71 7.156 11.631 11.636 24.406 13.313 37.97.542 4.385 4.52 7.498 8.922 6.958 4.385-.542 7.499-4.537 6.957-8.921-1.961-15.856-7.198-30.792-15.565-44.391-35.92-58.371-33.455-54.429-34.9-56.566 0-5.809 0-112.034 0-119.741 0-59.632-79.941-82.539-110.644-29.733-10.282-17.667-29.413-29.577-51.286-29.577-31.049 0-56.084 23.67-59.017 53.365-36.283-39.37-100.577-14.161-102.848 37.482-32.092-30.321-85.583-7.799-85.583 36.877 0 137.494.005 128.541.005 205.246 0 98.717 80.313 179.03 179.03 179.03h102.619c94.858 0 173.368-74.118 178.737-168.737.25-4.411-3.123-8.19-7.534-8.44zm-133.409-306.14c27.131-27.163 73.931-7.805 73.931 30.627v102.565c-13.333-10.483-30.03-16.496-47.334-16.496h-39.286v-86.068c0-11.577 4.503-22.452 12.689-30.628zm-115.311 30.628c0-23.925 19.353-43.311 43.311-43.311 23.882 0 43.311 19.429 43.311 43.311v86.069h-86.621c-.001-14.146-.001-65.298-.001-86.069zm-102.62 34.206c0-23.928 19.354-43.31 43.31-43.31 23.882 0 43.311 19.429 43.311 43.31v51.863c-24.894 0-42.763 19.687-42.763 42.21 0 20.984 7.664 40.201 20.319 55.04-28.854 15.871-64.176-5.128-64.176-37.941-.001-12.732-.001-99.96-.001-111.172zm-50.758-.552c19.166 0 34.759 15.593 34.759 34.759v102.621c0 19.166-15.593 34.759-34.759 34.759-19.102 0-34.649-15.489-34.754-34.566 0-54.736-.005-26.503-.005-102.813 0-19.167 15.592-34.76 34.759-34.76z"/></svg>