<svg id="Layer_1" enable-background="new 0 0 512.096 512.096" height="512" viewBox="0 0 512.096 512.096" width="512" xmlns="http://www.w3.org/2000/svg"><path d="m422.811 68.136c-9.506 35.485-37.731 140.829-47.91 178.82 7.916 7.916 17.505 16.97 25.14 34.56 10.074 23.076 8 35.689 8 90.58 0 72.9-59.1 132-132 132h-56c-73.09 0-132-59.299-132-132 0-67.439 0 122.104 0-164 0-17.679 14.319-32 32-32 17.67 0 32 14.33 32 32v-28c0-23.894 22.868-41.234 46.05-34.57-22.259-83.059-16.843-62.848-24.68-92.1-2.57-9.6-1.01-19.34 3.59-27.32 15.959-27.566 57.645-22.318 65.96 8.68 4.97 18.558.049.192 48.58 181.31h17.08c2.033-7.585 41.99-156.703 44.64-166.59 5.15-19.21 24.89-30.6 44.09-25.46 19.186 5.137 30.611 24.851 25.46 44.09z" fill="#f9cfac"/><g fill="#ffe4cc"><path d="m240.041 200.096v-20c0-19.46-10.74-36.45-26.6-45.36l-31.9-114.83c18.755-20.723 53.951-12.968 61.42 14.88 6.051 22.596-1.665-6.205 44.29 165.31z"/><path d="m422.811 68.136c-9.648 36.012-34.218 127.716-43.13 160.98-10.053-10.066-26.498-29.02-58.84-29.02h-7.93c7.251-27.061 35.665-133.106 40.35-150.59 5.15-19.21 24.89-30.6 44.09-25.46 19.186 5.137 30.611 24.851 25.46 44.09z"/><path d="m223.141 276.156c-3.086 13.445-13.64 23.99-27.1 27.05-16.03-3.64-28-17.98-28-35.11v-117.94c23.599-15.802 56 .967 56 29.94 0 32.33.16 11.513-.9 96.06z"/><path d="m152.041 208.096v72c0 14.896-10.185 27.45-24 30.99-13.8-3.55-24-16.08-24-30.99v-99.72c21.158-12.218 48 2.994 48 27.72z"/><path d="m408.041 372.096c0 40.66-18.38 77.02-47.29 101.24-18.17 9.43-38.82 14.76-60.71 14.76h-56c-72.562 0-132-58.78-132-132v-28.67c16.96 2.87 34.302-3.539 45.36-17.22.078-.116.057-.072.12-.04 26.696 19.469 64.824 9.263 78.21-21.36 22.03 17.283 42.074 15.29 62.28 15.29-50.238 18.07-86.203 64.507-89.69 119.3-.275 4.664 3.374 8.339 7.76 8.47 4.32.13 7.93-3.21 8.21-7.53 3.667-57.181 47.409-103.669 103.75-111.18 0-9.071-2.91-17.561-7.78-24.41-.59-.928 3.657-.65-40.22-.65-31.062 0-56-25.207-56-56 0-8.853 7.16-16 16-16h80.8c14.86 0 29.1 5.9 39.6 16.4 19.321 19.321 30.802 28.752 39.6 49.02 10.074 23.076 8 35.689 8 90.58z"/></g><path d="m329.93 136.317c5.259 1.455 10.391-2.599 10.391-8.651 0-9.385-13.47-11.058-15.758-1.959-1.503 5.433 1.261 9.475 5.367 10.61z"/><path d="m426.142 36.804c-19.535-33.699-70.457-27.24-80.609 10.631l-12.66 47.25c-1.144 4.268 1.39 8.654 5.657 9.798 4.268 1.142 8.654-1.389 9.798-5.657l12.66-47.249c6.465-24.116 38.876-28.203 51.302-6.767 3.735 6.481 4.728 14.03 2.793 21.254l-44.324 165.435-4.66-4.66c-12.048-12.048-27.504-18.745-47.053-18.745l12.462-46.51c1.144-4.268-1.389-8.654-5.657-9.798-4.265-1.14-8.654 1.389-9.798 5.657l-13.571 50.65h-4.802l-46.992-175.38c-3.044-11.35-10.326-20.836-20.503-26.712-33.904-19.574-74.585 11.833-64.501 49.495l21.603 80.619c-22.625.384-41.137 17.92-43.068 40.143-26.124-19.887-64.178-1.267-64.178 31.838v164c0 77.196 62.804 140 140 140h56c77.196 0 140-62.804 140-140 0-53.996 2.217-68.846-8.662-93.766-6.263-14.427-14.077-24.287-23.556-33.765l46.715-174.36c3.039-11.35 1.481-23.205-4.396-33.401zm-242.218-6.69c12.57-21.711 44.915-17.094 51.309 6.741l45.882 171.241c-42.816 0-43.644-.552-49.074 1.362v-29.362c0-18.356-11.303-34.115-27.311-40.703l-23.591-88.035c-1.935-7.227-.943-14.776 2.785-21.244zm-23.883 149.982c0-15.439 12.561-28 28-28s28 12.561 28 28v88c0 15.439-12.561 28-28 28s-28-12.561-28-28c0-10.157 0-77.86 0-88zm-64 28c0-13.234 10.766-24 24-24s24 10.766 24 24v72c0 13.234-10.766 24-24 24s-24-10.766-24-24zm296.668 76.621c9.227 21.138 7.332 31.548 7.332 87.379 0 68.374-55.626 124-124 124h-56c-68.374 0-124-55.626-124-124v-60.022c19.829 14.919 48.483 8.351 59.757-14.081 25.411 27.385 70.998 12.501 75.848-24.089 11.745 13.576 29.077 22.192 48.395 22.192h35.433c1.792 3.116 3.14 6.488 3.912 10.376-59.43 11.607-103.345 64.306-103.345 125.624 0 4.418 3.582 8 8 8s8-3.582 8-8c0-55.917 41.725-103.64 97.056-111.01 3.975-.53 6.944-3.92 6.944-7.93 0-6.565-1.261-12.972-3.755-19.062-1.308-3.171-4.839-9.976-7.284-12.069-3.142-2.699-2.754-1.929-44.961-1.929-26.467 0-48-21.533-48-48 0-4.435 3.567-8 8-8h80.804c12.821 0 24.875 4.993 33.941 14.059 19.068 19.068 29.762 27.761 37.923 46.562z"/></svg>